<svg xmlns="http://www.w3.org/2000/svg" xmlns:xlink="http://www.w3.org/1999/xlink" version="1.1" x="0px" y="0px" viewBox="0 0 100 125" style="enable-background:new 0 0 100 100;" xml:space="preserve"><path d="M90.1,33.2l-4.9-22c-0.3-1.2-1.4-2.1-2.6-2.1h-65c-1.3,0-2.4,0.9-2.6,2.1l-5,22c0,0.2-0.1,0.4-0.1,0.6v54.3  c0,1.5,1.2,2.7,2.7,2.7h45.7h19.8h9.4c1.5,0,2.7-1.2,2.7-2.7V33.8C90.1,33.6,90.1,33.4,90.1,33.2z M84.6,36.5  c-0.6,3.3-3.3,5.7-6.5,5.7s-5.9-2.5-6.5-5.7H84.6z M80.3,14.6L84,31.1H71l-2.6-16.5H80.3z M52.7,14.6H63l2.6,16.5H52.7V14.6z   M65.9,36.5c-0.6,3.3-3.3,5.7-6.5,5.7s-5.9-2.5-6.5-5.7H65.9z M37,14.6h10.2v16.5H34.4L37,14.6z M47.2,36.5  c-0.6,3.3-3.3,5.7-6.5,5.7s-5.9-2.5-6.5-5.7H47.2z M19.6,14.6h11.9L29,31.1H16L19.6,14.6z M28.4,36.5c-0.6,3.3-3.3,5.7-6.5,5.7  s-5.9-2.5-6.5-5.7H28.4z M85.1,85.4h-1.9h-2.4h-5.4H61h-5.4h-2.9H15.3V45.5c1.9,1.3,4.2,2.1,6.7,2.1c3.8,0,7.1-1.8,9.4-4.7  c2.2,2.8,5.6,4.7,9.4,4.7s7.1-1.8,9.4-4.7c2.2,2.8,5.6,4.7,9.4,4.7c3.8,0,7.1-1.8,9.4-4.7c2.2,2.8,5.6,4.7,9.4,4.7  c2.5,0,4.7-0.8,6.7-2.1V85.4z"/><path d="M67.6,62.3c-1.7-0.1-3.3,0.2-4.8,0.9l-4.6-7v-0.7l1.3,0.3c0.4,0.1,0.9-0.2,0.9-0.7v-3.3c0-0.5-0.4-0.9-0.9-0.7l-7.1,1.7  c-0.7,0.2-0.7,1.2,0,1.4l3.3,0.7v0.4H38.8l0.8-2.9c0.1-0.4-0.2-0.7-0.6-0.6l-6.1,1.9c-0.3-0.1-0.6-0.5-0.6-0.9c0-0.6,0.4-1,1-1v-2.5  c-1.9,0-3.5,1.5-3.5,3.5s1.5,3.3,3.5,3.3l3-0.9l-0.2,1l-1.8,5.9c-0.4-0.1-0.9-0.1-1.4-0.1c-5.6,0-10.1,4.6-9.8,10.3  c0.2,5,4.3,9.1,9.3,9.3c5.6,0.2,10.3-4.3,10.3-9.8c0-4.1-2.5-7.6-6.1-9.1l1.1-3.6l8.4,10.7c-0.3,0.7-0.4,1.5-0.2,2.3  c0.3,1.3,1.4,2.3,2.7,2.6c1.5,0.3,3-0.5,3.6-1.7h5.1c0.5,4.9,4.7,8.8,9.8,8.8c5.5,0,10-4.6,9.8-10.1C76.6,66.9,72.6,62.7,67.6,62.3z   M40.2,71.9c0,4.1-3.3,7.3-7.3,7.3c-4.1,0-7.3-3.3-7.3-7.3c0-4.1,3.3-7.3,7.3-7.3c0.2,0,0.4,0,0.7,0.1L32,69.5  c-1,0.4-1.8,1.3-1.8,2.5c0,1.4,1.2,2.6,2.6,2.6s2.6-1.2,2.6-2.6c0-0.8-0.4-1.5-1-2l1.4-4.7C38.4,66.4,40.2,69,40.2,71.9z M62.1,66.7  l2.6,4h-4.9C60.2,69.1,61,67.7,62.1,66.7z M49.7,68C49.5,68,49.4,68,49.1,68c-0.4,0-0.9,0.1-1.3,0.2l-8.1-10.4H55L49.7,68z   M52.5,70.7c-0.1-0.5-0.4-1-0.7-1.4l5.3-10.3l3.6,5.6c-1.9,1.5-3.1,3.6-3.5,6.1H52.5z M67,79.5c-3.7,0-6.8-2.8-7.3-6.4h5  c0.4,0.8,1.3,1.4,2.3,1.4c1.4,0,2.6-1.2,2.6-2.6c0-1.4-1.2-2.6-2.6-2.6c-0.1,0-0.1,0-0.2,0l-2.6-4c0.9-0.4,1.8-0.6,2.8-0.6  c4.1,0,7.3,3.3,7.3,7.3C74.4,76.2,71,79.5,67,79.5z"/><text x="0" y="115" fill="#000000" font-size="5px" font-weight="bold" font-family="'Helvetica Neue', Helvetica, Arial-Unicode, Arial, Sans-serif">Created by achmad mulyana</text><text x="0" y="120" fill="#000000" font-size="5px" font-weight="bold" font-family="'Helvetica Neue', Helvetica, Arial-Unicode, Arial, Sans-serif">from the Noun Project</text></svg>