<?xml version="1.0" encoding="UTF-8" standalone="no"?>
<svg
   xmlns:dc="http://purl.org/dc/elements/1.1/"
   xmlns:cc="http://creativecommons.org/ns#"
   xmlns:rdf="http://www.w3.org/1999/02/22-rdf-syntax-ns#"
   xmlns:svg="http://www.w3.org/2000/svg"
   xmlns="http://www.w3.org/2000/svg"
   version="1.1"
   x="0px"
   y="0px"
   viewBox="0 0 56.199982 88.028"
   enable-background="new 0 0 100 100"
   xml:space="preserve"
   id="svg849"
   width="56.199982"
   height="88.028"><metadata
     id="metadata855"><rdf:RDF><cc:Work
         rdf:about=""><dc:format>image/svg+xml</dc:format><dc:type
           rdf:resource="http://purl.org/dc/dcmitype/StillImage" /><dc:title></dc:title></cc:Work></rdf:RDF></metadata><defs
     id="defs853" /><path
     d="m 1.9999824,88.028 h 26.0999996 26.1 c 1.105,0 2,-0.896 2,-2 0,-0.26 -0.051,-0.518 -0.149,-0.759 l -2.7,-6.58 c -0.308,-0.751 -1.039,-1.241 -1.85,-1.241 h -3.03 v -64.47 c 0,-1.105 -0.896,-2 -2,-2 h -16.371 v -8.95 c 0.016,-1.105 -0.867,-2.013 -1.972,-2.028 -0.019,0 -0.039,0 -0.058,0 -1.104,0.017 -1.985,0.924 -1.97,2.028 v 8.95 H 9.7299824 c -1.104,0 -2,0.895 -2,2 v 64.47 h -3.03 c -0.811,0 -1.542,0.49 -1.85,1.241 l -2.70000002,6.58 c -0.419,1.022 0.07,2.19 1.09200002,2.61 0.241,0.098 0.498,0.149 0.758,0.149 z m 9.7299996,-73.05 h 32.74 v 62.47 h -5.69 v -21.32 c 0,-1.104 -0.895,-2 -2,-2 h -7.69 c -1.104,0 -2,0.896 -2,2 v 21.32 h -15.36 z m 23.05,43.15 v 19.32 h -3.69 V 58.128 Z M 6.0419824,81.448 h 22.0579996 22.059 l 1.059,2.58 h -23.118 -23.1169996 z"
     id="path833" /><path
     d="m 23.439982,59.098 h -5.69 c -1.105,0 -2,0.895 -2,2 v 6.8 c 0,1.105 0.895,2 2,2 h 5.69 c 1.104,0 2,-0.895 2,-2 v -6.8 c 0,-1.104 -0.895,-2 -2,-2 z m -2,6.8 h -1.69 v -2.8 h 1.69 z"
     id="path835" /><path
     d="m 23.439982,40.178 h -5.69 c -1.105,0 -2,0.896 -2,2 v 6.8 c 0,1.104 0.895,2 2,2 h 5.69 c 1.104,0 2,-0.896 2,-2 v -6.8 c 0,-1.104 -0.895,-2 -2,-2 z m -2,6.8 h -1.69 v -2.8 h 1.69 z"
     id="path837" /><path
     d="m 31.089982,50.978 h 5.69 c 1.105,0 2,-0.896 2,-2 v -6.8 c 0,-1.104 -0.895,-2 -2,-2 h -5.69 c -1.104,0 -2,0.896 -2,2 v 6.8 c 0,1.105 0.896,2 2,2 z m 2,-6.8 h 1.69 v 2.8 h -1.69 z"
     id="path839" /><path
     d="m 23.439982,21.268 h -5.69 c -1.105,0 -2,0.895 -2,2 v 6.8 c 0,1.105 0.895,2 2,2 h 5.69 c 1.104,0 2,-0.895 2,-2 v -6.8 c 0,-1.104 -0.895,-2 -2,-2 z m -2,6.8 h -1.69 v -2.8 h 1.69 z"
     id="path841" /><path
     d="m 31.089982,32.068 h 5.69 c 1.105,0 2,-0.895 2,-2 v -6.8 c 0,-1.105 -0.895,-2 -2,-2 h -5.69 c -1.104,0 -2,0.895 -2,2 v 6.8 c 0,1.105 0.896,2 2,2 z m 2,-6.8 h 1.69 v 2.8 h -1.69 z"
     id="path843" /></svg>
