<?xml version="1.0" encoding="UTF-8" standalone="no"?>
<svg
   xmlns:dc="http://purl.org/dc/elements/1.1/"
   xmlns:cc="http://creativecommons.org/ns#"
   xmlns:rdf="http://www.w3.org/1999/02/22-rdf-syntax-ns#"
   xmlns:svg="http://www.w3.org/2000/svg"
   xmlns="http://www.w3.org/2000/svg"
   xmlns:sodipodi="http://sodipodi.sourceforge.net/DTD/sodipodi-0.dtd"
   xmlns:inkscape="http://www.inkscape.org/namespaces/inkscape"
   version="1.1"
   x="0px"
   y="0px"
   viewBox="0 0 100 100"
   id="svg10"
   width="25"
   height="25"
   sodipodi:docname="menu.svg"
   inkscape:version="1.0.2 (1.0.2+r75+1)">
  <sodipodi:namedview
     pagecolor="#ffffff"
     bordercolor="#666666"
     borderopacity="1"
     objecttolerance="10"
     gridtolerance="10"
     guidetolerance="10"
     inkscape:pageopacity="0"
     inkscape:pageshadow="2"
     inkscape:window-width="1853"
     inkscape:window-height="1145"
     id="namedview7"
     showgrid="false"
     scale-x="4"
     inkscape:zoom="13.18047"
     inkscape:cx="33.212919"
     inkscape:cy="30.972942"
     inkscape:window-x="67"
     inkscape:window-y="27"
     inkscape:window-maximized="1"
     inkscape:current-layer="g4" />
  <metadata
     id="metadata16">
    <rdf:RDF>
      <cc:Work
         rdf:about="">
        <dc:format>image/svg+xml</dc:format>
        <dc:type
           rdf:resource="http://purl.org/dc/dcmitype/StillImage" />
        <dc:title></dc:title>
      </cc:Work>
    </rdf:RDF>
  </metadata>
  <defs
     id="defs14" />
  <g
     transform="matrix(0.75080902,0,0,0.77460103,12.459549,-726.43078)"
     id="g4"
     style="stroke-width:1.00181974;stroke-miterlimit:4;stroke-dasharray:none">
    <path
       style="color:#000000;text-indent:0;text-transform:none;direction:ltr;baseline-shift:baseline;enable-background:accumulate;stroke-width:1.00181974;stroke-miterlimit:4;stroke-dasharray:none;fill:#c2c2c2;fill-opacity:1"
       d="m 14,972.36217 c -2.2091,0 -4,1.7908 -4,4 0,2.2092 1.7909,4 4,4 h 72 c 2.2091,0 4,-1.7908 4,-4 0,-2.2092 -1.7909,-4 -4,-4 z m 0,26 c -2.2091,0 -4,1.79083 -4,4.00003 0,2.2092 1.7909,4 4,4 h 72 c 2.2091,0 4,-1.7908 4,-4 0,-2.2092 -1.7909,-4.00003 -4,-4.00003 z m 0,26.00003 c -2.2091,0 -4,1.7908 -4,4 0,2.2092 1.7909,4 4,4 h 72 c 2.2091,0 4,-1.7908 4,-4 0,-2.2092 -1.7909,-4 -4,-4 z"
       fill="#000000"
       fill-opacity="1"
       stroke="none"
       marker="none"
       visibility="visible"
       display="inline"
       overflow="visible"
       id="path2" />
  </g>
</svg>
