<?xml version="1.0" encoding="UTF-8" standalone="no"?>
<svg
   xmlns:dc="http://purl.org/dc/elements/1.1/"
   xmlns:cc="http://creativecommons.org/ns#"
   xmlns:rdf="http://www.w3.org/1999/02/22-rdf-syntax-ns#"
   xmlns:svg="http://www.w3.org/2000/svg"
   xmlns="http://www.w3.org/2000/svg"
   version="1.1"
   x="0px"
   y="0px"
   viewBox="0 0 58 51.026001"
   enable-background="new 0 0 64 64"
   xml:space="preserve"
   id="svg1015"
   width="58"
   height="51.026001"><metadata
     id="metadata1021"><rdf:RDF><cc:Work
         rdf:about=""><dc:format>image/svg+xml</dc:format><dc:type
           rdf:resource="http://purl.org/dc/dcmitype/StillImage" /><dc:title></dc:title></cc:Work></rdf:RDF></metadata><defs
     id="defs1019" /><g
     id="g931"
     transform="translate(-3,-6.487)"
     style="stroke-width:1.0015748;stroke-miterlimit:4;stroke-dasharray:none;fill:#ffffff"><path
       d="m 29.144,33.665 c -0.553,0 -1,0.448 -1,1 0,0.552 0.447,1 1,1 h 6.494 c 0.553,0 1,-0.448 1,-1 0,-0.552 -0.447,-1 -1,-1 z"
       id="path897"
       style="stroke-width:1.0015748;stroke-miterlimit:4;stroke-dasharray:none;fill:#ffffff" /><path
       d="m 35.638,37.331 h -6.494 c -0.553,0 -1,0.448 -1,1 0,0.552 0.447,1 1,1 h 6.494 c 0.553,0 1,-0.448 1,-1 0,-0.552 -0.448,-1 -1,-1 z"
       id="path899"
       style="stroke-width:1.0015748;stroke-miterlimit:4;stroke-dasharray:none;fill:#ffffff" /><path
       d="m 35.638,40.997 h -6.494 c -0.553,0 -1,0.448 -1,1 0,0.552 0.447,1 1,1 h 6.494 c 0.553,0 1,-0.448 1,-1 0,-0.552 -0.448,-1 -1,-1 z"
       id="path901"
       style="stroke-width:1.0015748;stroke-miterlimit:4;stroke-dasharray:none;fill:#ffffff" /><path
       d="m 58.285,47.085 c 0.997,-1.161 1.551,-2.597 1.551,-4.112 0,-1.349 -0.44,-2.65 -1.257,-3.75 0.969,-1.144 1.493,-2.534 1.493,-3.997 0,-1.796 -0.821,-3.507 -2.241,-4.755 0.686,-0.917 1.054,-1.995 1.054,-3.126 0,-2.037 -1.199,-3.868 -3.124,-4.877 0.262,-0.949 0.397,-2.017 0.397,-3.143 0,-3.815 -1.577,-6.692 -3.669,-6.692 -2.087,0 -3.661,2.877 -3.661,6.692 0,1.124 0.136,2.192 0.397,3.141 -1.93,1.008 -3.131,2.84 -3.131,4.878 0,0.226 0.041,0.444 0.07,0.664 H 42.65 v -8.055 c 0,-0.374 -0.209,-0.717 -0.541,-0.889 L 33.39,14.569 v -3.712 h 2.995 c 0.553,0 1,-0.448 1,-1 v -2.37 c 0,-0.552 -0.447,-1 -1,-1 H 32.39 c -0.553,0 -1,0.448 -1,1 v 7.084 c -2.91,1.498 -5.814,2.996 -8.719,4.496 -0.332,0.172 -0.541,0.515 -0.541,0.889 v 8.055 h -7.536 c -0.369,0 -0.708,0.203 -0.882,0.529 l -2.677,5.012 c -0.081,0.145 -0.127,0.311 -0.127,0.488 v 10.259 c -0.071,-0.003 -0.14,-0.021 -0.212,-0.021 -2.508,0 -4.548,2.038 -4.548,4.543 0,0.171 0.01,0.341 0.028,0.51 C 4.357,49.768 3,51.411 3,53.364 c 0,2.288 1.861,4.149 4.149,4.149 L 55.402,57.46 c 3.087,0 5.598,-2.507 5.598,-5.589 0,-2.03 -1.091,-3.806 -2.715,-4.786 z M 7.149,55.513 C 5.964,55.513 5,54.549 5,53.364 c 0,-1.185 0.964,-2.149 2.149,-2.149 0.069,0 0.139,0.007 0.208,0.013 0.347,0.026 0.689,-0.127 0.896,-0.412 0.205,-0.285 0.246,-0.658 0.107,-0.98 -0.141,-0.326 -0.212,-0.668 -0.212,-1.017 0,-1.402 1.143,-2.543 2.548,-2.543 1.405,0 2.548,1.141 2.548,2.543 0,0.714 -0.282,1.37 -0.796,1.847 -0.287,0.267 -0.392,0.676 -0.269,1.048 0.124,0.372 0.453,0.637 0.843,0.678 0.799,0.085 1.401,0.755 1.401,1.557 0,0.862 -0.701,1.563 -1.563,1.563 H 7.149 Z m 14.982,0 h -6.083 c 0.233,-0.474 0.377,-1 0.377,-1.563 0,-1.276 -0.669,-2.404 -1.691,-3.035 0.332,-0.64 0.512,-1.359 0.512,-2.096 0,-1.699 -0.949,-3.166 -2.336,-3.945 v -9.835 h 9.222 v 20.474 z m 0,-22.474 h -8.554 l 1.617,-3.029 h 6.937 z M 35.386,8.859 H 33.391 V 8.487 h 1.995 z M 34.06,55.513 h -3.346 v -7.598 h 3.346 z m 6.59,0 h -4.59 v -8.598 c 0,-0.552 -0.447,-1 -1,-1 h -5.346 c -0.553,0 -1,0.448 -1,1 v 8.598 H 24.131 V 20.564 c 2.751,-1.42 5.502,-2.839 8.26,-4.258 l 8.26,4.259 v 34.948 z m 7.445,-28.167 c 0,-1.48 1.06,-2.808 2.699,-3.384 0.258,-0.09 0.467,-0.282 0.579,-0.53 0.113,-0.248 0.119,-0.532 0.019,-0.785 -0.363,-0.906 -0.563,-2.085 -0.563,-3.32 0,-2.911 1.075,-4.692 1.661,-4.692 0.589,0 1.669,1.781 1.669,4.692 0,1.237 -0.2,2.416 -0.563,3.32 -0.102,0.253 -0.096,0.537 0.017,0.785 0.112,0.248 0.321,0.44 0.579,0.531 1.636,0.576 2.693,1.904 2.693,3.384 0,0.939 -0.426,1.833 -1.199,2.515 -0.237,0.208 -0.361,0.517 -0.336,0.831 0.026,0.314 0.198,0.599 0.466,0.766 1.435,0.899 2.257,2.273 2.257,3.769 0,1.201 -0.537,2.34 -1.512,3.208 -0.205,0.183 -0.326,0.442 -0.335,0.717 -0.008,0.274 0.098,0.541 0.292,0.735 0.85,0.854 1.318,1.95 1.318,3.086 0,1.281 -0.596,2.486 -1.636,3.368 -0.262,-0.038 -0.526,-0.063 -0.798,-0.063 -0.529,0 -1.042,0.078 -1.53,0.217 V 34.039 c 0,-0.177 -0.046,-0.344 -0.127,-0.488 L 51.068,28.539 C 50.894,28.213 50.555,28.01 50.186,28.01 H 48.168 C 48.121,27.794 48.095,27.572 48.095,27.346 Z M 42.65,30.01 h 6.937 l 1.617,3.029 H 42.65 Z m 0,5.029 h 9.222 v 12.502 c -0.646,0.528 -1.181,1.193 -1.54,1.968 -0.526,-0.235 -1.103,-0.359 -1.699,-0.359 -2.292,0 -4.157,1.863 -4.157,4.153 0,0.814 0.244,1.568 0.649,2.21 H 42.65 Z M 55.402,55.46 h -6.77 c -1.189,0 -2.157,-0.968 -2.157,-2.157 0,-1.188 0.968,-2.153 2.157,-2.153 0.583,0 1.128,0.227 1.532,0.638 0.264,0.267 0.654,0.364 1.011,0.253 0.358,-0.112 0.623,-0.415 0.688,-0.784 0.3,-1.727 1.788,-2.979 3.539,-2.979 1.983,0 3.598,1.612 3.598,3.594 0,1.978 -1.614,3.588 -3.598,3.588 z"
       id="path903"
       style="stroke-width:1.0015748;stroke-miterlimit:4;stroke-dasharray:none;fill:#ffffff" /><path
       d="m 28.99,27.331 c 0,1.871 1.525,3.393 3.4,3.393 1.871,0 3.393,-1.522 3.393,-3.393 0,-1.871 -1.521,-3.392 -3.393,-3.392 -1.874,0 -3.4,1.521 -3.4,3.392 z m 4.793,0 c 0,0.768 -0.625,1.393 -1.393,1.393 -0.772,0 -1.4,-0.625 -1.4,-1.393 0,-0.768 0.628,-1.392 1.4,-1.392 0.768,0 1.393,0.624 1.393,1.392 z"
       id="path905"
       style="stroke-width:1.0015748;stroke-miterlimit:4;stroke-dasharray:none;fill:#ffffff" /><rect
       x="14.847"
       y="44.473999"
       width="1.7819999"
       height="1.603"
       id="rect907"
       style="stroke-width:1.0015748;stroke-miterlimit:4;stroke-dasharray:none;fill:#ffffff" /><rect
       x="14.847"
       y="40.438"
       width="1.7819999"
       height="1.599"
       id="rect909"
       style="stroke-width:1.0015748;stroke-miterlimit:4;stroke-dasharray:none;fill:#ffffff" /><rect
       x="14.847"
       y="36.438999"
       width="1.7819999"
       height="1.599"
       id="rect911"
       style="stroke-width:1.0015748;stroke-miterlimit:4;stroke-dasharray:none;fill:#ffffff" /><rect
       x="18.402"
       y="44.473999"
       width="1.7819999"
       height="1.603"
       id="rect913"
       style="stroke-width:1.0015748;stroke-miterlimit:4;stroke-dasharray:none;fill:#ffffff" /><rect
       x="18.402"
       y="40.438"
       width="1.7819999"
       height="1.599"
       id="rect915"
       style="stroke-width:1.0015748;stroke-miterlimit:4;stroke-dasharray:none;fill:#ffffff" /><rect
       x="18.402"
       y="36.438999"
       width="1.7819999"
       height="1.599"
       id="rect917"
       style="stroke-width:1.0015748;stroke-miterlimit:4;stroke-dasharray:none;fill:#ffffff" /><rect
       x="48.145"
       y="44.473999"
       width="1.79"
       height="1.603"
       id="rect919"
       style="stroke-width:1.0015748;stroke-miterlimit:4;stroke-dasharray:none;fill:#ffffff" /><rect
       x="48.145"
       y="40.438"
       width="1.79"
       height="1.599"
       id="rect921"
       style="stroke-width:1.0015748;stroke-miterlimit:4;stroke-dasharray:none;fill:#ffffff" /><rect
       x="48.145"
       y="36.438999"
       width="1.79"
       height="1.599"
       id="rect923"
       style="stroke-width:1.0015748;stroke-miterlimit:4;stroke-dasharray:none;fill:#ffffff" /><rect
       x="44.588001"
       y="44.473999"
       width="1.7819999"
       height="1.603"
       id="rect925"
       style="stroke-width:1.0015748;stroke-miterlimit:4;stroke-dasharray:none;fill:#ffffff" /><rect
       x="44.588001"
       y="40.438"
       width="1.7819999"
       height="1.599"
       id="rect927"
       style="stroke-width:1.0015748;stroke-miterlimit:4;stroke-dasharray:none;fill:#ffffff" /><rect
       x="44.588001"
       y="36.438999"
       width="1.7819999"
       height="1.599"
       id="rect929"
       style="stroke-width:1.0015748;stroke-miterlimit:4;stroke-dasharray:none;fill:#ffffff" /></g></svg>
