<?xml version="1.0" encoding="UTF-8" standalone="no"?>
<svg
   xmlns:dc="http://purl.org/dc/elements/1.1/"
   xmlns:cc="http://creativecommons.org/ns#"
   xmlns:rdf="http://www.w3.org/1999/02/22-rdf-syntax-ns#"
   xmlns:svg="http://www.w3.org/2000/svg"
   xmlns="http://www.w3.org/2000/svg"
   version="1.1"
   x="0px"
   y="0px"
   viewBox="0 0 43.129 43.129"
   xml:space="preserve"
   id="svg8"
   width="25"
   height="25"><metadata
     id="metadata14"><rdf:RDF><cc:Work
         rdf:about=""><dc:format>image/svg+xml</dc:format><dc:type
           rdf:resource="http://purl.org/dc/dcmitype/StillImage" /><dc:title></dc:title></cc:Work></rdf:RDF></metadata><defs
     id="defs12" /><path
     style="color:#000000;text-indent:0;text-transform:none;direction:ltr;baseline-shift:baseline;enable-background:accumulate;stroke-width:1.00181974;stroke-miterlimit:4;stroke-dasharray:none;fill:#c2c2c2;fill-opacity:1"
     d="m 29.99032,16.72032 c 0,-3.54 -1.38,-6.88 -3.89,-9.38 -2.51,-2.51 -5.84,-3.89 -9.38,-3.89 -3.54,0 -6.88,1.38 -9.38,3.89 -2.51,2.51 -3.89,5.84 -3.89,9.38 0,3.54 1.38,6.88 3.89,9.38 2.51,2.51 5.84,3.89 9.38,3.89 3.05,0 5.93,-1.03 8.28,-2.91 l 12.36,12.36 2.08,-2.08 -12.36,-12.36 c 1.88,-2.34 2.91,-5.23 2.91,-8.28 z m -5.97,7.3 c -1.95,1.95 -4.54,3.02 -7.3,3.02 -2.76,0 -5.35,-1.07 -7.3,-3.02 -1.95,-1.95 -3.02,-4.54 -3.02,-7.3 0,-2.76 1.07,-5.35 3.02,-7.3 1.95,-1.95 4.54,-3.02 7.3,-3.02 2.76,0 5.35,1.07 7.3,3.02 1.95,1.95 3.02,4.54 3.02,7.3 0,2.76 -1.07,5.35 -3.02,7.3 z"
     id="path2" /></svg>
