<?xml version="1.0" encoding="UTF-8" standalone="no"?>
<svg
   xmlns:dc="http://purl.org/dc/elements/1.1/"
   xmlns:cc="http://creativecommons.org/ns#"
   xmlns:rdf="http://www.w3.org/1999/02/22-rdf-syntax-ns#"
   xmlns:svg="http://www.w3.org/2000/svg"
   xmlns="http://www.w3.org/2000/svg"
   id="svg12"
   xml:space="preserve"
   enable-background="new 0 0 100 100"
   viewBox="0 0 110.01 102.244"
   y="0px"
   x="0px"
   version="1.1"><metadata
     id="metadata18"><rdf:RDF><cc:Work
         rdf:about=""><dc:format>image/svg+xml</dc:format><dc:type
           rdf:resource="http://purl.org/dc/dcmitype/StillImage" /><dc:title></dc:title></cc:Work></rdf:RDF></metadata><defs
     id="defs16" /><g
     transform="translate(5.005,1.122)"
     id="g6"><path
       id="path2"
       d="m 81.905,43.953 c -0.663,-0.497 -1.603,-0.362 -2.1,0.3 l -3,4 c -0.497,0.663 -0.362,1.604 0.3,2.101 0.663,0.497 1.604,0.362 2.101,-0.3 l 3,-4 c 0.497,-0.664 0.362,-1.604 -0.301,-2.101 z" /><path
       id="path4"
       d="M 93.005,87.122 H 81.653 c 0.222,-0.626 0.35,-1.297 0.352,-2 v -1 c -10e-4,-0.331 -0.037,-0.652 -0.09,-0.969 h 7.079 c 3.313,-0.008 5.992,-2.687 6,-6 V 72.29 C 94.985,69.844 94.551,66.301 93.969,63.925 L 86.911,35.553 C 86.51,33.968 85.55,32.665 84.345,31.718 83.136,30.778 81.639,30.16 80.005,30.154 h -8.217 l 7.88,-6.192 c 0.852,-0.656 1.42,-1.706 1.412,-2.808 0.008,-1.101 -0.56,-2.151 -1.412,-2.808 L 68.814,9.816 C 67.956,9.151 66.967,8.882 66.005,8.878 65.043,8.882 64.054,9.149 63.196,9.816 l -10.854,8.529 c -0.853,0.655 -1.421,1.707 -1.413,2.808 -0.007,1.101 0.561,2.151 1.413,2.808 l 7.88,6.192 H 19.005 c -1.638,0.006 -3.135,0.631 -4.332,1.586 -1.192,0.961 -2.128,2.286 -2.49,3.884 L 5.912,63.783 C 5.393,66.147 5.002,69.7 4.995,72.122 v 5.031 c 0.007,3.313 2.687,5.992 6,6 h 6.101 c -0.053,0.316 -0.089,0.638 -0.09,0.969 v 1 c 0.001,0.703 0.129,1.374 0.352,2 H 7.005 c -1.104,0 -2,0.896 -2,2 0,1.104 0.896,2 2,2 h 86 c 1.104,0 2,-0.896 2,-2 0,-1.104 -0.895,-2 -2,-2 z M 65.668,12.96 c 0.007,-0.015 0.158,-0.086 0.337,-0.082 0.178,-0.004 0.329,0.067 0.338,0.083 l 10.424,8.191 -10.425,8.192 c -0.008,0.014 -0.159,0.086 -0.337,0.082 -0.179,0.004 -0.33,-0.068 -0.336,-0.082 L 55.243,21.152 Z M 64.357,87.122 H 34.653 c 0.222,-0.626 0.35,-1.297 0.352,-2 v -1 c -0.001,-0.331 -0.037,-0.652 -0.09,-0.969 h 29.18 c -0.053,0.316 -0.089,0.638 -0.09,0.969 v 1 c 0.002,0.703 0.13,1.374 0.352,2 z M 88.334,57.84 H 75.005 c -0.205,0 -0.387,-0.082 -0.529,-0.222 -0.14,-0.142 -0.221,-0.323 -0.221,-0.528 V 42.122 c 0,-0.205 0.081,-0.387 0.221,-0.528 0.142,-0.141 0.324,-0.222 0.529,-0.222 h 9.232 z M 64.005,41.372 c 0.205,0 0.387,0.081 0.528,0.222 0.14,0.142 0.221,0.323 0.222,0.528 v 15 c 0,0.205 -0.082,0.387 -0.222,0.528 -0.142,0.14 -0.323,0.222 -0.528,0.222 h -14.75 v -16.5 z m -17.25,16.5 h -15.5 v -16.5 h 15.5 z m -18,0 H 11.327 l 3.674,-16.5 H 28.755 Z M 9.583,78.564 C 9.214,78.192 8.995,77.702 8.994,77.153 v -5.031 c -0.002,-0.5 0.022,-1.101 0.065,-1.75 h 72.945 c 0.69,0 1.25,-0.56 1.25,-1.25 0,-0.69 -0.56,-1.25 -1.25,-1.25 H 9.299 c 0.144,-1.205 0.326,-2.371 0.517,-3.22 l 0.954,-4.28 h 53.236 c 1.796,-0.005 3.245,-1.455 3.25,-3.25 v -15 c -0.005,-1.796 -1.454,-3.245 -3.25,-3.25 H 15.558 l 0.53,-2.38 c 0.116,-0.55 0.515,-1.177 1.088,-1.632 0.568,-0.46 1.267,-0.713 1.83,-0.707 h 61 c 0.565,-0.007 1.287,0.249 1.877,0.716 0.595,0.46 1.018,1.099 1.148,1.649 l 0.585,2.354 h -8.61 c -1.796,0.005 -3.245,1.454 -3.25,3.25 V 57.09 c 0.005,1.795 1.454,3.245 3.25,3.25 h 13.951 l 1.132,4.55 c 0.48,1.895 0.916,5.444 0.907,7.399 v 4.863 c -10e-4,0.549 -0.221,1.039 -0.589,1.411 -0.372,0.368 -0.862,0.588 -1.411,0.589 h -78 c -0.55,0 -1.041,-0.22 -1.413,-0.588 z m 13.422,8.558 c -0.549,-0.001 -1.04,-0.221 -1.411,-0.589 -0.369,-0.372 -0.588,-0.862 -0.589,-1.411 v -1 c 0,-0.354 0.1,-0.68 0.264,-0.969 h 9.472 c 0.164,0.289 0.264,0.614 0.264,0.969 v 1 c -10e-4,0.549 -0.221,1.039 -0.589,1.411 -0.372,0.368 -0.862,0.588 -1.411,0.589 z m 47,0 c -0.549,-0.001 -1.04,-0.221 -1.411,-0.589 -0.369,-0.372 -0.588,-0.862 -0.589,-1.411 v -1 c 0,-0.354 0.1,-0.68 0.264,-0.969 h 9.472 c 0.164,0.289 0.264,0.614 0.264,0.969 v 1 c -10e-4,0.549 -0.221,1.039 -0.589,1.411 -0.372,0.368 -0.862,0.588 -1.411,0.589 z" /></g></svg>