<?xml version="1.0" encoding="UTF-8" standalone="no"?>
<svg
   xmlns:dc="http://purl.org/dc/elements/1.1/"
   xmlns:cc="http://creativecommons.org/ns#"
   xmlns:rdf="http://www.w3.org/1999/02/22-rdf-syntax-ns#"
   xmlns:svg="http://www.w3.org/2000/svg"
   xmlns="http://www.w3.org/2000/svg"
   version="1.1"
   x="0px"
   y="0px"
   viewBox="0 0 89.900002 89.900002"
   xml:space="preserve"
   id="svg849"
   width="89.900002"
   height="89.900002"><metadata
     id="metadata855"><rdf:RDF><cc:Work
         rdf:about=""><dc:format>image/svg+xml</dc:format><dc:type
           rdf:resource="http://purl.org/dc/dcmitype/StillImage" /><dc:title></dc:title></cc:Work></rdf:RDF></metadata><defs
     id="defs853" /><g
     id="g843"
     transform="translate(-4.3,-5.1)"><g
       id="g841"><path
         d="m 83.8,26.4 c 0,-0.8 -0.3,-1.6 -0.9,-2.2 L 66,6.1 c -0.6,-0.7 -1.5,-1 -2.4,-1 h -42 c -2.9,0 -5.3,2.4 -5.3,5.3 v 79.3 c 0,2.9 2.4,5.3 5.3,5.3 h 56.9 c 2.9,0 5.3,-2.4 5.3,-5.3 z M 78.5,91 H 21.6 c -0.7,0 -1.3,-0.6 -1.3,-1.3 V 10.4 c 0,-0.7 0.6,-1.3 1.3,-1.3 H 62.9 V 21 c 0,3.2 2.6,5.8 5.8,5.8 h 11.1 v 62.9 c 0,0.7 -0.6,1.3 -1.3,1.3 z"
         id="path833" /><path
         d="m 41.2,67.4 h -3.1 c -0.8,0 -1.2,0.4 -1.2,1.2 v 0.8 c 0,0.8 0.4,1.2 1.2,1.2 h 1 v 1 c 0,0 -0.9,1.2 -3.1,1.2 -2.3,0 -4.3,-1.7 -4.3,-4.5 C 31.7,66 33,64 36,64 c 1.3,0 2.1,0.4 2.8,0.7 0.7,0.4 1.2,0.3 1.6,-0.3 l 0.5,-0.9 c 0.4,-0.7 0.3,-1.1 -0.3,-1.6 -0.6,-0.4 -2.5,-1.3 -4.9,-1.3 -4.6,0 -7.9,3.3 -7.9,7.9 0,4.7 3.5,7.7 7.4,7.7 2.7,0 4,-1.4 4,-1.4 v 0 c 0,0 0,0.1 0,0.2 v 0 c 0,0.5 0.4,0.9 1.2,0.9 h 0.7 c 0.8,0 1.2,-0.4 1.2,-1.2 V 68.5 C 42.4,67.8 42,67.4 41.2,67.4 Z"
         id="path835" /><path
         d="m 52.4,60.9 h -5.1 c -0.8,0 -1.2,0.4 -1.2,1.2 v 12.7 c 0,0.8 0.4,1.2 1.2,1.2 h 1.4 c 0.8,0 1.2,-0.4 1.2,-1.2 v -3.5 h 2.6 c 2.9,0 4.9,-2.2 4.9,-5.2 0,-3 -2.1,-5.2 -5,-5.2 z m -0.8,7.2 H 49.8 V 64 h 1.9 c 1.2,0 1.8,0.8 1.8,2 0,1.3 -0.6,2.1 -1.9,2.1 z"
         id="path837" /><path
         d="m 70.7,60.9 h -1.6 c -0.6,0 -1,0.3 -1.4,0.8 L 66.5,64 c -0.5,1 -0.9,1.9 -0.9,1.9 v 0 c 0,0 -0.4,-1 -0.9,-1.9 l -1.2,-2.3 c -0.3,-0.6 -0.7,-0.8 -1.4,-0.8 h -1.6 c -0.9,0 -1.3,0.6 -0.8,1.4 l 3.7,6.2 -3.7,6.1 C 59.2,75.4 59.6,76 60.5,76 H 62 c 0.6,0 1,-0.3 1.4,-0.8 l 1.3,-2.3 C 65.2,72 65.6,71 65.6,71 v 0 c 0,0 0.4,0.9 0.9,1.9 l 1.3,2.3 c 0.3,0.6 0.7,0.8 1.4,0.8 h 1.5 c 0.9,0 1.3,-0.6 0.8,-1.4 l -3.7,-6.1 3.8,-6.2 c 0.4,-0.8 0,-1.4 -0.9,-1.4 z"
         id="path839" /></g></g></svg>
