<?xml version="1.0" encoding="UTF-8" standalone="no"?>
<svg
   xmlns:dc="http://purl.org/dc/elements/1.1/"
   xmlns:cc="http://creativecommons.org/ns#"
   xmlns:rdf="http://www.w3.org/1999/02/22-rdf-syntax-ns#"
   xmlns:svg="http://www.w3.org/2000/svg"
   xmlns="http://www.w3.org/2000/svg"
   height="100"
   width="100"
   xml:space="preserve"
   enable-background="new 0 0 370.8 116.1"
   viewBox="0 0 100 100"
   y="0px"
   x="0px"
   id="Layer_1"
   version="1.1"><metadata
   id="metadata49"><rdf:RDF><cc:Work
       rdf:about=""><dc:format>image/svg+xml</dc:format><dc:type
         rdf:resource="http://purl.org/dc/dcmitype/StillImage" /><dc:title></dc:title></cc:Work></rdf:RDF></metadata><defs
   id="defs47" />
<g
   transform="translate(0.03753758,12.138184)"
   id="g42">
	
	
	
	
	
	
	<path
   style="fill:#1d919c"
   id="path14"
   d="m 43.489473,24.678948 c -6.1,5.5 -10.2,12.2 -10.4,17.1 -0.1,1.9 0.4,3.5 1.4,4.6 1,1.1 2.4,1.7 4.1,1.9 l 0.7,0.1 v -0.7 c 0,-4.6 4,-11 10,-16.4 6,-5.4 12.8,-8.6 17.4,-8.2 l 0.7,0.1 v -0.7 c 0,-1.8 -0.4,-3.2 -1.4,-4.3 -1.1,-1.2 -2.5,-1.8 -4.5,-1.9 -4.9,-0.4 -12,2.9 -18,8.4" />
	<path
   style="fill:#1d919c"
   id="path16"
   d="m 20.789473,1.6789475 c -6,5 -12.7999996,15.5000005 -13.1999996,27.2000005 -0.5,12.8 3.9999996,26.2 13.1999996,36.4 9.2,10.2 22.3,16.4 35.1,17.1 10.9,0.6 21,-3.2 28.7,-10 4.8,-4.3 6.4,-8.2 8.4,-12.5 -3.9,4.3 -4.4,4.8 -5.4,5.7 -7,6.3 -16.5,9.2 -26.5,8.4 -11.7,-0.9 -23.2,-6.3 -31.8,-15.7 -16.4,-17.8 -17,-44.6 -1.1,-58.90000045 1.5,-1.40000005 5.2,-3.80000005 7.5,-4.80000005 0,0 -9.2,2.1 -14.9,7.1" />
	<path
   style="fill:#1d919c"
   id="path18"
   d="m 33.189473,6.5789475 c -4.1,3.6000005 -6.6,8.5000005 -8,15.0000005 0,0 4.4,-6.4 6.7,-8.2 5.3,-4.0000005 13.5,-8.2000005 26.3,-4.8000005 8.3,2.2000005 10.7,6.2000005 11.8,7.7000005 4.4,6.2 -0.2,17 -9.8,26.2 -9.5,9.2 -23,12.1 -27.8,8.5 2.2,2.8 4.4,4.9 6.7,6.8 8.2,4.9 19.9,-1.8 27.4,-8.9 6.5,-6.8 14.5,-16.4 9.8,-26.7 3.3,5.9 5.7,13.2 5.7,18.4 0.2,17.2 -12.4,23.6 -16,25.4 5.7,-0.3 18.9,-4 23.2,-19.7 3.1,-11.2 -0.4,-24.2 -9.1,-33.9 -7,-7.7000005 -16.5,-12.50000045 -26.1,-12.90000045 -7.9,-0.4 -15.2,2.09999995 -20.8,7.09999995" />
	
	
	
	
	
	
	
	
	
	
	
</g>
</svg>