<?xml version="1.0" encoding="UTF-8" standalone="no"?>
<svg
   xmlns:dc="http://purl.org/dc/elements/1.1/"
   xmlns:cc="http://creativecommons.org/ns#"
   xmlns:rdf="http://www.w3.org/1999/02/22-rdf-syntax-ns#"
   xmlns:svg="http://www.w3.org/2000/svg"
   xmlns="http://www.w3.org/2000/svg"
   xmlns:sodipodi="http://sodipodi.sourceforge.net/DTD/sodipodi-0.dtd"
   xmlns:inkscape="http://www.inkscape.org/namespaces/inkscape"
   viewBox="0 0 527.18317 508.17969"
   height="143.4196mm"
   width="148.78281mm"
   id="svg2"
   version="1.1"
   inkscape:version="0.91 r13725"
   sodipodi:docname="De_Lijn.svg">
  <sodipodi:namedview
     pagecolor="#ffffff"
     bordercolor="#666666"
     borderopacity="1"
     objecttolerance="10"
     gridtolerance="10"
     guidetolerance="10"
     inkscape:pageopacity="0"
     inkscape:pageshadow="2"
     inkscape:window-width="1920"
     inkscape:window-height="956"
     id="namedview37"
     showgrid="false"
     inkscape:zoom="1.8567357"
     inkscape:cx="382.60773"
     inkscape:cy="345.45857"
     inkscape:window-x="0"
     inkscape:window-y="1"
     inkscape:window-maximized="1"
     inkscape:current-layer="layer1" />
  <defs
     id="defs4318" />
  <metadata
     id="metadata4321">
    <rdf:RDF>
      <cc:Work
         rdf:about="">
        <dc:format>image/svg+xml</dc:format>
        <dc:type
           rdf:resource="http://purl.org/dc/dcmitype/StillImage" />
      </cc:Work>
    </rdf:RDF>
  </metadata>
  <g
     transform="translate(-41.863677,-54.960636)"
     id="layer1">
    <rect
       transform="matrix(1,0,-0.17484833,0.98459538,0,0)"
       y="331.1362"
       x="231.83305"
       height="240.30496"
       width="350.90851"
       id="rect4929"
       style="fill:#ffdd00;fill-opacity:1;stroke:#ffdd00;stroke-width:1.01974034;stroke-miterlimit:4;stroke-dasharray:none;stroke-opacity:1" />
    <rect
       style="fill:#ffdd00;fill-opacity:1;stroke:#ffdd00;stroke-width:1.01974034;stroke-miterlimit:4;stroke-dasharray:none;stroke-opacity:1"
       id="rect4933"
       width="350.90851"
       height="240.30496"
       x="231.83305"
       y="331.1362"
       transform="matrix(1,0,-0.17484833,0.98459538,0,0)" />
    <rect
       transform="matrix(1,0,-0.17364818,0.98480775,0,0)"
       y="56.346092"
       x="234.64549"
       height="120.91451"
       width="343.55481"
       id="rect4937"
       style="fill:#ffdd00;fill-opacity:1;stroke:#ffdd00;stroke-width:1.07519865;stroke-miterlimit:4;stroke-dasharray:none;stroke-opacity:1" />
    <rect
       transform="matrix(1,0,-0.17364818,0.98480775,0,0)"
       y="229.12294"
       x="97.080116"
       height="85.222343"
       width="49.233135"
       id="rect4939"
       style="fill:#666666;fill-opacity:1;stroke:#666666;stroke-width:1.07519865;stroke-miterlimit:4;stroke-dasharray:none;stroke-opacity:1" />
    <rect
       transform="matrix(1,0,-0.19459309,0.98088406,0,0)"
       y="294.07742"
       x="150.08815"
       height="21.491331"
       width="28.905901"
       id="rect4945"
       style="fill:#666666;fill-opacity:1;stroke:#666666;stroke-width:1.13914979;stroke-miterlimit:4;stroke-dasharray:none;stroke-opacity:1" />
    <rect
       transform="matrix(1,0,-0.17364818,0.98480775,0,0)"
       y="228.78741"
       x="172.48657"
       height="60.058266"
       width="47.581017"
       id="rect4949"
       style="fill:#666666;fill-opacity:1;stroke:#666666;stroke-width:1.07519865;stroke-miterlimit:4;stroke-dasharray:none;stroke-opacity:1" />
    <rect
       style="fill:#666666;fill-opacity:1;stroke:#666666;stroke-width:1.07519865;stroke-miterlimit:4;stroke-dasharray:none;stroke-opacity:1"
       id="rect4951"
       width="47.581017"
       height="60.058266"
       x="233.61496"
       y="228.78741"
       transform="matrix(1,0,-0.17364818,0.98480775,0,0)" />
    <path
       id="path4953"
       d="m 230.96987,284.93326 c -5.30703,13.42578 -11.89593,25.57106 -31.24537,24.96948 l -33.54765,-0.32855 3.94678,-21.02693 8.55136,0.32856 c 4.92743,-0.34071 4.19666,-2.73672 4.93348,-4.59966 l 0,-0.32853 z"
       style="fill:#666666;fill-opacity:1;fill-rule:evenodd;stroke:#666666;stroke-width:0.99485022px;stroke-linecap:butt;stroke-linejoin:miter;stroke-opacity:1" />
    <rect
       transform="matrix(1,0,-0.17364818,0.98480775,0,0)"
       y="229.09264"
       x="296.18723"
       height="85.295837"
       width="43.25"
       id="rect4955"
       style="fill:#666666;fill-opacity:1;stroke:#666666;stroke-width:1.07519865;stroke-miterlimit:4;stroke-dasharray:none;stroke-opacity:1" />
    <rect
       style="fill:#666666;fill-opacity:1;stroke:#666666;stroke-width:1.07519865;stroke-miterlimit:4;stroke-dasharray:none;stroke-opacity:1"
       id="rect4957"
       width="43.25"
       height="85.295837"
       x="362.59909"
       y="228.58492"
       transform="matrix(1,0,-0.17364818,0.98480775,0,0)" />
    <rect
       transform="matrix(1,0,-0.16789843,0.9858043,0,0)"
       y="192.59908"
       x="171.06439"
       height="21.237619"
       width="9.986393"
       id="rect4961"
       style="fill:#666666;fill-opacity:1;stroke:#666666;stroke-width:1.09196615;stroke-miterlimit:4;stroke-dasharray:none;stroke-opacity:1" />
    <rect
       style="fill:#666666;fill-opacity:1;stroke:#666666;stroke-width:1.09351254;stroke-miterlimit:4;stroke-dasharray:none;stroke-opacity:1"
       id="rect4971"
       width="9.9851017"
       height="21.300566"
       x="201.63939"
       y="192.51762"
       transform="matrix(1,0,-0.16738062,0.98589235,0,0)" />
    <rect
       transform="matrix(1,0,-0.17364818,0.98480775,0,0)"
       y="201.19453"
       x="213.68208"
       height="3.2755697"
       width="2.9185867"
       id="rect4973"
       style="fill:#666666;fill-opacity:1;stroke:#666666;stroke-width:1.07519865;stroke-miterlimit:4;stroke-dasharray:none;stroke-opacity:1" />
    <rect
       transform="matrix(1,0,-0.17364818,0.98480775,0,0)"
       y="192.70171"
       x="213.76445"
       height="4.3674264"
       width="5.6835637"
       id="rect4975"
       style="fill:#666666;fill-opacity:1;stroke:#666666;stroke-width:1.07519865;stroke-miterlimit:4;stroke-dasharray:none;stroke-opacity:1" />
    <rect
       style="fill:#666666;fill-opacity:1;stroke:#666666;stroke-width:1.07519865;stroke-miterlimit:4;stroke-dasharray:none;stroke-opacity:1"
       id="rect4977"
       width="5.6835637"
       height="4.3674264"
       x="213.64546"
       y="209.67543"
       transform="matrix(1,0,-0.17364818,0.98480775,0,0)" />
    <path
       id="path4979"
       d="m 149.21622,189.80301 12.47438,0.17834 c 6.35199,7.42914 3.40085,19.20652 -4.59373,20.74937 l -11.78194,0.0619 1.38248,-4.91598 4.60822,0 c 1.91794,-0.26815 2.81627,-2.23586 3.8402,-3.99424 0.19258,-1.03347 0.11293,-2.34874 0,-3.68698 -1.3029,-2.2981 -2.84386,-2.92971 -4.45463,-3.07246 l -1.9969,-0.15364 -1.8433,11.06094 z"
       style="fill:#666666;fill-opacity:1;fill-rule:evenodd;stroke:#666666;stroke-width:1.00003934px;stroke-linecap:butt;stroke-linejoin:miter;stroke-opacity:1" />
    <rect
       transform="matrix(1,0,-0.17364818,0.98480775,0,0)"
       y="192.8266"
       x="235.71576"
       height="21.235424"
       width="104.96621"
       id="rect4981"
       style="fill:#010198;fill-opacity:1;stroke:#010198;stroke-width:1.07519865;stroke-miterlimit:4;stroke-dasharray:none;stroke-opacity:1" />
    <rect
       transform="matrix(1,0,-0.17364818,0.98480775,0,0)"
       y="192.8266"
       x="343.6879"
       height="21.235424"
       width="62.738426"
       id="rect4983"
       style="fill:#010198;fill-opacity:1;stroke:#010198;stroke-width:1.07519865;stroke-miterlimit:4;stroke-dasharray:none;stroke-opacity:1" />
    <rect
       transform="matrix(1,0,-0.17364818,0.98480775,0,0)"
       y="192.8266"
       x="410.10413"
       height="21.235424"
       width="38.206093"
       id="rect4985"
       style="fill:#010198;fill-opacity:1;stroke:#010198;stroke-width:1.07519865;stroke-miterlimit:4;stroke-dasharray:none;stroke-opacity:1" />
    <rect
       transform="matrix(1,0,-0.17710074,0.98419273,0,0)"
       y="192.97031"
       x="453.24146"
       height="21.230856"
       width="22.531042"
       id="rect4989"
       style="fill:#010198;fill-opacity:1;stroke:#010198;stroke-width:1.06511831;stroke-miterlimit:4;stroke-dasharray:none;stroke-opacity:1" />
    <rect
       transform="matrix(1,0,-0.17713253,0.98418701,0,0)"
       y="192.97148"
       x="479.83411"
       height="21.230877"
       width="14.486855"
       id="rect4991"
       style="fill:#010198;fill-opacity:1;stroke:#010198;stroke-width:1.06521499;stroke-miterlimit:4;stroke-dasharray:none;stroke-opacity:1" />
    <rect
       transform="matrix(1,0,-0.17364818,0.98480775,0,0)"
       y="192.8266"
       x="499.03299"
       height="21.235424"
       width="8.4455576"
       id="rect4993"
       style="fill:#010198;fill-opacity:1;stroke:#010198;stroke-width:1.07519865;stroke-miterlimit:4;stroke-dasharray:none;stroke-opacity:1" />
    <rect
       transform="matrix(1,0,-0.17721856,0.98417152,0,0)"
       y="192.97467"
       x="513.79419"
       height="21.230932"
       width="6.0391374"
       id="rect4995"
       style="fill:#010198;fill-opacity:1;stroke:#010198;stroke-width:1.06547654;stroke-miterlimit:4;stroke-dasharray:none;stroke-opacity:1" />
    <rect
       transform="matrix(1,0,-0.17960235,0.98373929,0,0)"
       y="192.93896"
       x="525.85266"
       height="21.36405"
       width="4.8357549"
       id="rect4997"
       style="fill:#010198;fill-opacity:1;stroke:#010198;stroke-width:1.05935585;stroke-miterlimit:4;stroke-dasharray:none;stroke-opacity:1" />
    <rect
       transform="matrix(1,0,-0.17730416,0.9841561,0,0)"
       y="192.97786"
       x="536.17426"
       height="21.230989"
       width="2.819633"
       id="rect4999"
       style="fill:#010198;fill-opacity:1;stroke:#010198;stroke-width:1.06573665;stroke-miterlimit:4;stroke-dasharray:none;stroke-opacity:1" />
    <rect
       transform="matrix(1,0,-0.17364818,0.98480775,0,0)"
       y="192.8266"
       x="545.82788"
       height="21.235424"
       width="2.8151858"
       id="rect5001"
       style="fill:#010198;fill-opacity:1;stroke:#010198;stroke-width:1.07519865;stroke-miterlimit:4;stroke-dasharray:none;stroke-opacity:1" />
    <rect
       transform="matrix(1,0,-0.18287798,0.98313562,0,0)"
       y="192.85426"
       x="558.95721"
       height="21.584026"
       width="1.3324956"
       id="rect5003"
       style="fill:#010198;fill-opacity:1;stroke:#010198;stroke-width:1.05264103;stroke-miterlimit:4;stroke-dasharray:none;stroke-opacity:1" />
    <rect
       transform="matrix(1,0,-0.17980804,0.98370172,0,0)"
       y="192.91266"
       x="567.91907"
       height="21.398233"
       width="1.3305292"
       id="rect5005"
       style="fill:#010198;fill-opacity:1;stroke:#010198;stroke-width:1.06002235;stroke-miterlimit:4;stroke-dasharray:none;stroke-opacity:1" />
    <rect
       transform="matrix(1,0,-0.17859011,0.98392356,0,0)"
       y="192.7251"
       x="579.79944"
       height="21.535765"
       width="0.7980063"
       id="rect5007"
       style="fill:#010198;fill-opacity:1;stroke:#010198;stroke-width:1.06321609;stroke-miterlimit:4;stroke-dasharray:none;stroke-opacity:1" />
    <path
       id="path5009"
       d="m 307.37047,307.97566 -14.90423,-36.94776 7.84434,-44.33731 15.4272,38.73145 z"
       style="fill:#666666;fill-opacity:1;fill-rule:evenodd;stroke:#666666;stroke-width:0.97312576px;stroke-linecap:butt;stroke-linejoin:miter;stroke-opacity:1"
       inkscape:connector-curvature="0" />
    <rect
       style="fill:#666666;fill-opacity:1;stroke:#666666;stroke-width:1.08765447;stroke-miterlimit:4;stroke-dasharray:none;stroke-opacity:1"
       id="rect4165"
       width="14.049367"
       height="44.908825"
       x="285.67554"
       y="225.7066" />
    <rect
       y="264.1304"
       x="308.7287"
       height="44.441349"
       width="14.054832"
       id="rect4169"
       style="fill:#666666;fill-opacity:1;stroke:#666666;stroke-width:1.0821892;stroke-miterlimit:4;stroke-dasharray:none;stroke-opacity:1" />
    <rect
       style="fill:#666666;fill-opacity:1;stroke:#666666;stroke-width:0.79733145;stroke-miterlimit:4;stroke-dasharray:none;stroke-opacity:1"
       id="rect4171"
       width="45.317383"
       height="7.4820309"
       x="184.55727"
       y="279.00388" />
    <rect
       style="fill:#666666;fill-opacity:1;stroke:#666666;stroke-width:1.07519865;stroke-miterlimit:4;stroke-dasharray:none;stroke-opacity:1"
       id="rect4175"
       width="5.6835637"
       height="4.3674264"
       x="211.04503"
       y="192.70171"
       transform="matrix(1,0,-0.17364818,0.98480775,0,0)" />
    <rect
       transform="matrix(1,0,-0.1812907,0.98342955,0,0)"
       y="201.2892"
       x="211.8233"
       height="3.4885159"
       width="4.739594"
       id="rect4179"
       style="fill:#666666;fill-opacity:1;stroke:#666666;stroke-width:0.87751889;stroke-miterlimit:4;stroke-dasharray:none;stroke-opacity:1" />
    <rect
       style="fill:#666666;fill-opacity:1;stroke:#666666;stroke-width:0.94740438;stroke-miterlimit:4;stroke-dasharray:none;stroke-opacity:1"
       id="rect4181"
       width="4.6719537"
       height="4.1251631"
       x="206.8299"
       y="209.01669"
       transform="matrix(1,0,-0.15112367,0.98851486,0,0)" />
    <rect
       transform="matrix(1,0,-0.1290236,0.99164152,0,0)"
       y="207.67184"
       x="171.79536"
       height="4.7683835"
       width="4.610683"
       id="rect4183"
       style="fill:#666666;fill-opacity:1;stroke:#666666;stroke-width:1.01189113;stroke-miterlimit:4;stroke-dasharray:none;stroke-opacity:1" />
    <rect
       style="fill:#666666;fill-opacity:1;stroke:#666666;stroke-width:1.01189113;stroke-miterlimit:4;stroke-dasharray:none;stroke-opacity:1"
       id="rect4185"
       width="4.610683"
       height="4.7683835"
       x="172.91092"
       y="191.57552"
       transform="matrix(1,0,-0.1290236,0.99164152,0,0)" />
  </g>
</svg>
