<?xml version="1.0" encoding="UTF-8" standalone="no"?>
<!-- Created with Inkscape (http://www.inkscape.org/) -->
<!DOCTYPE svg PUBLIC "-//W3C//DTD SVG 1.1//EN" "http://www.w3.org/Graphics/SVG/1.1/DTD/svg11.dtd">
<svg
   xmlns:dc="http://purl.org/dc/elements/1.1/"
   xmlns:cc="http://creativecommons.org/ns#"
   xmlns:rdf="http://www.w3.org/1999/02/22-rdf-syntax-ns#"
   xmlns:svg="http://www.w3.org/2000/svg"
   xmlns="http://www.w3.org/2000/svg"
   version="1.1"
   width="495"
   height="668.86658"
   id="svg22919"
   xml:space="preserve"><metadata
     id="metadata22925"><rdf:RDF><cc:Work
         rdf:about=""><dc:format>image/svg+xml</dc:format><dc:type
           rdf:resource="http://purl.org/dc/dcmitype/StillImage" /><dc:title></dc:title></cc:Work></rdf:RDF></metadata><defs
     id="defs22923" /><g
     transform="matrix(1.25,0,0,-1.25,-20.832532,1527.0121)"
     id="g22927"><g
       transform="matrix(1.249998,0,0,1.249998,-6.166456,-173.62769)"
       id="g23864"><path
         d="m 128.83028,1074.4256 c 0.0739,6.0068 -2.68063,9.121 -6.94796,9.121 -5.06561,0 -7.67233,-3.2571 -7.67233,-10.0622 l 0,-5.1395 14.62029,-0.2168 0,6.2975 z"
         id="path22995"
         style="fill:#007dc5;fill-opacity:1;fill-rule:nonzero;stroke:none" /><path
         d="m 285.82222,1035.3638 0.21682,14.6203 5.13952,0 c 6.80506,0 10.06223,-2.6018 10.06223,-7.6723 0,-4.2723 -3.11427,-7.0219 -9.12105,-6.948 l -6.29752,0 z"
         id="path22999"
         style="fill:#007dc5;fill-opacity:1;fill-rule:nonzero;stroke:none" /><path
         d="m 299.91279,1067.9029 c 0.58639,-0.9855 0.8919,-2.1829 0.8919,-3.5824 0,-5.0705 -4.41516,-7.2387 -9.26395,-7.2387 l -5.43025,0 0.0739,13.6742 13.72839,-2.8531 z"
         id="path23003"
         style="fill:#007dc5;fill-opacity:1;fill-rule:nonzero;stroke:none" /><path
         d="m 93.768201,1068.4972 13.344029,-0.079 0,5.4302 c 0,4.8488 -2.16816,9.264 -7.238691,9.264 -1.202343,0 -2.251929,-0.2267 -3.148758,-0.6603 l -2.95658,-13.9551 z"
         id="path23007"
         style="fill:#007dc5;fill-opacity:1;fill-rule:nonzero;stroke:none" /><path
         d="m 24.66701,742.64953 236.42293,0 -10.39731,-48.13312 -226.02562,48.13312 z"
         id="path23011"
         style="fill:#ed1847;fill-opacity:1;fill-rule:nonzero;stroke:none" /><path
         d="m 98.807199,1091.9537 c 6.805061,0 11.057611,-3.8485 11.639071,-8.7663 l 0.1429,0 c 0.94118,6.0758 5.64707,9.6237 11.72777,9.6237 8.32277,0 13.60519,-6.3714 13.60519,-15.8522 l 0,-18.2421 -44.181157,0.4583 -1.621192,-8.17 45.802349,-18.2027 0,-8.6825 -48.13312,-17.8824 -2.971363,9.3379 39.381643,12.8118 0,0.1479 -36.050562,13.2602 -63.482703,-299.14676 236.422925,0 67.57757,319.11356 -19.04038,4.0702 c 0,-6.805 -3.82384,-11.5011 -8.74655,-12.0825 l 0,-0.1429 c 6.0807,-0.9412 9.6286,-5.6471 9.6286,-11.7278 0,-8.3228 -6.37143,-13.6101 -15.85713,-13.6101 l -18.24209,0 0.50754,44.5113 -14.82725,3.129 -0.43363,-47.6403 -9.26395,0 0.47798,49.5522 -150.35688,31.9705 -3.705581,-17.838 z m 123.698381,-21.5535 -14.04375,0 0.069,7.9631 37.13465,0 -0.069,-7.9631 -13.82694,0 -0.36464,-42.1312 -9.26395,0 0.36464,42.1312 z m -45.38843,-32.2119 c 2.31599,-1.5916 6.0807,-3.405 8.83032,-3.405 5.13952,0 8.03697,3.2572 8.03697,7.2387 -0.0739,9.9883 -20.55809,5.721 -20.55809,22.8051 0,8.1798 6.65724,14.5464 16.71946,14.5464 4.99662,0 9.84542,-1.7346 14.11767,-4.1935 l -3.90761,-6.6621 c -3.04035,1.6655 -5.86881,3.3311 -9.48569,3.3311 -4.19835,0 -8.17988,-2.247 -8.17988,-6.7312 0,-9.8454 20.99172,-6.7361 20.99172,-22.7312 0,-8.5445 -6.87405,-15.1327 -16.57656,-15.1327 -4.84879,0 -9.41178,1.3797 -13.61012,3.8386 l 3.62181,7.0958 z m -91.28441,-47.71921 0,9.26888 50.08939,-0.43856 0,-9.26395 -50.08939,0.43363 z m 0,-63.83257 0,9.4857 40.02717,12.15647 0,0.14783 -40.02717,13.89593 0,9.48569 50.08939,7.38159 1.0151,-9.41177 -39.524551,-3.76472 0,-0.1429 38.509451,-12.73793 0,-9.55468 -38.509451,-11.51095 0,-0.14783 39.524551,-5.20851 -1.0151,-8.90424 -50.08939,8.83032 z"
         id="path23015"
         style="fill:#007cc2;fill-opacity:1;fill-rule:nonzero;stroke:none" /><path
         d="m 128.83028,1074.4256 c 0.0739,6.0068 -2.68063,9.121 -6.94796,9.121 -5.06561,0 -7.67233,-3.2571 -7.67233,-10.0622 l 0,-5.1395 14.62029,-0.2168 0,6.2975 z"
         id="path23019"
         style="fill:#007cc2;fill-opacity:1;fill-rule:nonzero;stroke:none" /><path
         d="m 285.82222,1035.3638 0.21682,14.6203 5.13952,0 c 6.80506,0 10.06223,-2.6018 10.06223,-7.6723 0,-4.2723 -3.11427,-7.0219 -9.12105,-6.948 l -6.29752,0 z"
         id="path23023"
         style="fill:#007cc2;fill-opacity:1;fill-rule:nonzero;stroke:none" /><path
         d="m 299.91279,1067.9029 c 0.58639,-0.9855 0.8919,-2.1829 0.8919,-3.5824 0,-5.0705 -4.41516,-7.2387 -9.26395,-7.2387 l -5.43025,0 0.0739,13.6742 13.72839,-2.8531 z"
         id="path23027"
         style="fill:#007cc2;fill-opacity:1;fill-rule:nonzero;stroke:none" /><path
         d="m 93.768201,1068.4972 13.344029,-0.079 0,5.4302 c 0,4.8488 -2.16816,9.264 -7.238691,9.264 -1.202343,0 -2.251929,-0.2267 -3.148758,-0.6603 l -2.95658,-13.9551 z"
         id="path23031"
         style="fill:#007cc2;fill-opacity:1;fill-rule:nonzero;stroke:none" /><path
         d="m 24.66701,742.64953 236.42293,0 -10.39731,-48.13312 -226.02562,48.13312 z"
         id="path23035"
         style="fill:#ef3e42;fill-opacity:1;fill-rule:nonzero;stroke:none" /><path
         d="m 98.807199,1091.9537 c 6.805061,0 11.057611,-3.8485 11.639071,-8.7663 l 0.1429,0 c 0.94118,6.0758 5.64707,9.6237 11.72777,9.6237 8.32277,0 13.60519,-6.3714 13.60519,-15.8522 l 0,-18.2421 -44.181157,0.4583 -1.621192,-8.17 45.802349,-18.2027 0,-8.6825 -48.13312,-17.8824 -2.971363,9.3379 39.381643,12.8118 0,0.1479 -36.050562,13.2602 -63.482703,-299.14676 236.422925,0 67.57757,319.11356 -19.04038,4.0702 c 0,-6.805 -3.82384,-11.5011 -8.74655,-12.0825 l 0,-0.1429 c 6.0807,-0.9412 9.6286,-5.6471 9.6286,-11.7278 0,-8.3228 -6.37143,-13.6101 -15.85713,-13.6101 l -18.24209,0 0.50754,44.5113 -14.82725,3.129 -0.43363,-47.6403 -9.26395,0 0.47798,49.5522 -150.35688,31.9705 -3.705581,-17.838 z m 123.698381,-21.5535 -14.04375,0 0.069,7.9631 37.13465,0 -0.069,-7.9631 -13.82694,0 -0.36464,-42.1312 -9.26395,0 0.36464,42.1312 z m -45.38843,-32.2119 c 2.31599,-1.5916 6.0807,-3.405 8.83032,-3.405 5.13952,0 8.03697,3.2572 8.03697,7.2387 -0.0739,9.9883 -20.55809,5.721 -20.55809,22.8051 0,8.1798 6.65724,14.5464 16.71946,14.5464 4.99662,0 9.84542,-1.7346 14.11767,-4.1935 l -3.90761,-6.6621 c -3.04035,1.6655 -5.86881,3.3311 -9.48569,3.3311 -4.19835,0 -8.17988,-2.247 -8.17988,-6.7312 0,-9.8454 20.99172,-6.7361 20.99172,-22.7312 0,-8.5445 -6.87405,-15.1327 -16.57656,-15.1327 -4.84879,0 -9.41178,1.3797 -13.61012,3.8386 l 3.62181,7.0958 z m -91.28441,-47.71921 0,9.26888 50.08939,-0.43856 0,-9.26395 -50.08939,0.43363 z m 0,-63.83257 0,9.4857 40.02717,12.15647 0,0.14783 -40.02717,13.89593 0,9.48569 50.08939,7.38159 1.0151,-9.41177 -39.524551,-3.76472 0,-0.1429 38.509451,-12.73793 0,-9.55468 -38.509451,-11.51095 0,-0.14783 39.524551,-5.20851 -1.0151,-8.90424 -50.08939,8.83032 z"
         id="path23039"
         style="fill:#007cc2;fill-opacity:1;fill-rule:nonzero;stroke:none" /></g></g></svg>