<?xml version="1.0" encoding="UTF-8" standalone="no"?>
<svg
   xmlns:dc="http://purl.org/dc/elements/1.1/"
   xmlns:cc="http://creativecommons.org/ns#"
   xmlns:rdf="http://www.w3.org/1999/02/22-rdf-syntax-ns#"
   xmlns:svg="http://www.w3.org/2000/svg"
   xmlns="http://www.w3.org/2000/svg"
   xml:space="preserve"
   id="svg2"
   height="540"
   width="540"
   version="1.1"><metadata
     id="metadata13"><rdf:RDF><cc:Work
         rdf:about=""><dc:format>image/svg+xml</dc:format><dc:type
           rdf:resource="http://purl.org/dc/dcmitype/StillImage" /><dc:title></dc:title></cc:Work></rdf:RDF></metadata><defs
     id="defs6"><clipPath
       id="clipPath20"><path
         id="path22"
         d="M 0,8418.9 H 5952.75 V 0 H 0 Z" /></clipPath></defs><g
     id="g12"
     transform="matrix(1.25,0,0,-1.25,-103.998,961.06001)"><g
       id="g14"
       transform="scale(0.1)"><g
         id="g16"><g
           id="g18"
           clip-path="url(#clipPath20)"><path
             style="fill:#333399;fill-opacity:1;fill-rule:evenodd;stroke:none"
             id="path24"
             d="m 2666.73,6067.132 c 38.13,0 66.57,-19.06 95.17,-47.37 l 484.79,-484.64 c 95.16,-95.02 199.58,-142.68 342.25,-142.68 h 903.15 l -332.73,-332.72 h -846.25 c -47.51,0 -75.81,9.53 -104.4,38.12 l -484.94,484.64 c -95.02,95.31 -199.43,142.68 -342.11,142.68 h -903.15 l 332.73,341.97 z m 332.87,190.04 c -95.02,95.32 -209.26,142.68 -332.87,142.68 h -988.64 l -846.106,-836.14 846.106,-845.96 h 475.4 l -674.98,674.69 h 903.15 c 37.98,0 75.96,-9.53 104.56,-38.12 L 2971,4860.142 c 95.02,-95.02 209.11,-142.39 332.73,-142.39 h 998.17 l 836.72,845.96 -836.72,836.14 h -484.79 l 674.98,-674.69 h -903.15 c -38.12,0 -66.43,19.06 -95.03,37.84" /></g></g></g></g></svg>