<?xml version="1.0" encoding="UTF-8" standalone="no"?>
<svg xmlns="http://www.w3.org/2000/svg" height="21.166" width="21.721" version="1.1" y="0px" x="0px" viewBox="0 0 21.720703 21.166499">
 <g transform="translate(-2.3691 -273.19)">
  <path class="primary" style="color-rendering:auto;text-decoration-color:#000000;color:#000000;font-variant-numeric:normal;shape-rendering:auto;font-variant-ligatures:normal;text-decoration-line:none;font-variant-position:normal;mix-blend-mode:normal;solid-color:#000000;font-feature-settings:normal;shape-padding:0;font-variant-alternates:normal;text-indent:0;dominant-baseline:auto;font-variant-caps:normal;image-rendering:auto;white-space:normal;text-decoration-style:solid;text-orientation:mixed;isolation:auto;paint-order:normal;text-transform:none" d="m16.281 273.19a1.8707 1.8707 0 0 0 -1.8706 1.87 1.8707 1.8707 0 0 0 1.8706 1.869 1.8707 1.8707 0 0 0 1.8707 -1.869 1.8707 1.8707 0 0 0 -1.8707 -1.87z"/>
  <path class="primary" opacity=".3" style="color-rendering:auto;text-decoration-color:#000000;color:#000000;font-variant-numeric:normal;shape-rendering:auto;font-variant-ligatures:normal;text-decoration-line:none;font-variant-position:normal;mix-blend-mode:normal;solid-color:#000000;font-feature-settings:normal;shape-padding:0;font-variant-alternates:normal;text-indent:0;dominant-baseline:auto;font-variant-caps:normal;image-rendering:auto;white-space:normal;text-decoration-style:solid;text-orientation:mixed;isolation:auto;paint-order:normal;text-transform:none" d="m13.312 276.8a0.77953 0.77953 0 0 0 -0.539 0.23l-4.6768 4.677a0.77953 0.77953 0 0 0 0.16139 1.224l4.2876 2.476v5.787a0.77953 0.77953 0 1 0 1.5583 0v-6.237a0.77953 0.77953 0 0 0 -0.3891 -0.676l-3.0751-1.774 3.2559-3.255 1.9967 1.997a0.77953 0.77953 0 0 0 0.55 0.227h3.1184a0.77953 0.77953 0 1 0 0 -1.559h-2.7963l-2.8883-2.887a0.77953 0.77953 0 0 0 -0.5637 -0.23z"/>
  <path class="primary" style="color-rendering:auto;text-decoration-color:#000000;color:#000000;font-variant-numeric:normal;shape-rendering:auto;font-variant-ligatures:normal;text-decoration-line:none;font-variant-position:normal;mix-blend-mode:normal;solid-color:#000000;font-feature-settings:normal;shape-padding:0;font-variant-alternates:normal;text-indent:0;dominant-baseline:auto;font-variant-caps:normal;image-rendering:auto;white-space:normal;text-decoration-style:solid;text-orientation:mixed;isolation:auto;paint-order:normal;text-transform:none" d="m6.7344 15.082c-2.4051 0-4.3652 1.9612-4.3652 4.3672 0 2.403 1.9604 4.3633 4.3652 4.3633 2.4049 0 4.363-1.9603 4.3633-4.3633 0-2.406-1.9582-4.3672-4.3633-4.3672zm0 0.9375c0.47491 0 0.92537 0.09445 1.3359 0.26758 0.41057 0.17312 0.77987 0.42438 1.0898 0.73438 0.30997 0.31 0.56126 0.67922 0.73438 1.0898 0.17311 0.41062 0.26953 0.86289 0.26953 1.3379 0 0.47475-0.0964 0.92555-0.26953 1.3359-0.17313 0.41039-0.42439 0.78003-0.73438 1.0898-0.30998 0.30981-0.67928 0.56136-1.0898 0.73438-0.41056 0.17302-0.86108 0.26758-1.3359 0.26758-0.47486 0-0.92736-0.09456-1.3379-0.26758-0.4105-0.174-0.7799-0.425-1.0899-0.735-0.3099-0.31-0.5612-0.679-0.7343-1.09-0.1732-0.41-0.2675-0.861-0.2676-1.336 0-0.475 0.094464-0.92727 0.26758-1.3379 0.17311-0.41062 0.4244-0.77984 0.73438-1.0898 0.30997-0.31 0.67928-0.56125 1.0898-0.73438 0.41057-0.17312 0.86298-0.26758 1.3379-0.26758z" transform="translate(0 270.54)"/>
  <path class="primary" style="color-rendering:auto;text-decoration-color:#000000;color:#000000;font-variant-numeric:normal;shape-rendering:auto;font-variant-ligatures:normal;text-decoration-line:none;font-variant-position:normal;mix-blend-mode:normal;solid-color:#000000;font-feature-settings:normal;shape-padding:0;font-variant-alternates:normal;text-indent:0;dominant-baseline:auto;font-variant-caps:normal;image-rendering:auto;white-space:normal;text-decoration-style:solid;text-orientation:mixed;isolation:auto;paint-order:normal;text-transform:none" d="m19.725 15.082c-2.4052 0-4.3652 1.9612-4.3652 4.3672 0 2.403 1.9603 4.3633 4.3652 4.3633s4.3649-1.9603 4.3652-4.3633c0-2.406-1.9601-4.3672-4.3652-4.3672zm0 0.9375c1.8996 0 3.4297 1.5297 3.4297 3.4297 0 1.899-1.5302 3.4277-3.4297 3.4277s-3.4294-1.5287-3.4297-3.4277c0-1.9 1.53-3.4297 3.4297-3.4297z" transform="translate(0 270.54)"/>
 </g>
</svg>