<?xml version="1.0" encoding="UTF-8" standalone="no"?>
<svg xmlns="http://www.w3.org/2000/svg" enable-background="new 0 0 33 33" xml:space="preserve" version="1.1" y="0px" x="0px" viewBox="0 0 33 41.25">
<path class="primary" d="m7.04 19.09c-1.566 0-2.835 1.268-2.835 2.834s1.268 2.836 2.835 2.836 2.835-1.27 2.835-2.836-1.269-2.834-2.835-2.834zm0 4.422c-0.877 0-1.588-0.711-1.588-1.588s0.711-1.588 1.588-1.588 1.588 0.711 1.588 1.588-0.711 1.588-1.588 1.588z"/>
<path class="primary" d="m26.417 19.09c-1.565 0-2.834 1.268-2.834 2.834s1.269 2.836 2.834 2.836c1.566 0 2.836-1.27 2.836-2.836s-1.27-2.834-2.836-2.834zm0 4.422c-0.877 0-1.588-0.711-1.588-1.588s0.711-1.588 1.588-1.588 1.588 0.711 1.588 1.588-0.712 1.588-1.588 1.588z"/>
<path class="primary" opacity=".3" d="m30.553 13.381c-2.535-4.49-6.049-5.141-7.562-5.141h-9.487c-2.42 0-5.898 6.049-5.898 6.049s-2.815 0-4.932 0c-0.865 0-1.385 0.83-1.699 1.814h2.852s0.039 1.512-1.588 1.512h-1.598c-0.132 0.914-0.141 1.662-0.141 1.662 0 2.146 2.464 2.977 2.825 3.086-0.017-0.145-0.027-0.291-0.027-0.439 0-2.066 1.676-3.742 3.742-3.742s3.742 1.676 3.742 3.742c0 0.154-0.012 0.305-0.029 0.453h11.952c-0.019-0.148-0.03-0.299-0.03-0.453 0-2.066 1.676-3.742 3.742-3.742s3.742 1.676 3.742 3.742c0 0.154-0.012 0.305-0.029 0.453h1.098c1.739 0 1.86-4.506-0.675-8.996zm-12.795 0.605h-8.375c1.533-2.396 3.369-4.385 4.121-4.385h4.254v4.385zm1.399 0v-4.384h4.388c0.684 0 3.426 0.787 5.548 4.385h-9.936z"/>
</svg>