<?xml version="1.0" encoding="UTF-8" standalone="no"?>
<svg xmlns="http://www.w3.org/2000/svg" enable-background="new 0 0 100 100" xml:space="preserve" height="98.292" width="98.292" version="1.0" y="0px" x="0px" viewBox="0 0 98.291993 98.291992">
    <path class="primary" opacity=".3" d="m64.355 19.97h-6.5293v9.8232c0 3.8604-2.0898 7.4336-5.4541 9.3262l-17.296 9.7305c-0.21973 0.12402-0.35645 0.3584-0.35645 0.61133v14.708c0 0.25293 0.13672 0.4873 0.35645 0.61133l17.296 9.7305c3.3643 1.8926 5.4541 5.4658 5.4541 9.3262v9.4551c0 2.7617-2.2383 5-5 5s-5-2.2383-5-5v-9.4551c0-0.25293-0.13672-0.4873-0.35645-0.61133l-17.296-9.7305c-3.3643-1.8926-5.4541-5.4658-5.4541-9.3262v-14.708c0-3.8604 2.0898-7.4336 5.4541-9.3262l17.296-9.7305c0.21973-0.12402 0.35645-0.3584 0.35645-0.61133v-9.8232h-6.5293l11.528-19.97z"/>
    <path class="primary" d="m49.658 67.666c0 1.749 1.418 3.167 3.167 3.167s3.167-1.418 3.167-3.167-1.418-3.167-3.167-3.167-3.167 1.418-3.167 3.167z"/>
    <path class="primary" d="m49.658 45.832c0 1.749 1.418 3.167 3.167 3.167s3.167-1.418 3.167-3.167-1.418-3.167-3.167-3.167-3.167 1.418-3.167 3.167z"/>
    <path class="primary" d="m49.658 56.749c0 1.749 1.418 3.167 3.167 3.167s3.167-1.418 3.167-3.167-1.418-3.167-3.167-3.167-3.167 1.418-3.167 3.167z"/>
</svg>
