<?xml version="1.0" encoding="UTF-8" standalone="no"?>
<svg
   xmlns:dc="http://purl.org/dc/elements/1.1/"
   xmlns:cc="http://creativecommons.org/ns#"
   xmlns:rdf="http://www.w3.org/1999/02/22-rdf-syntax-ns#"
   xmlns:svg="http://www.w3.org/2000/svg"
   xmlns="http://www.w3.org/2000/svg"
   xmlns:sodipodi="http://sodipodi.sourceforge.net/DTD/sodipodi-0.dtd"
   xmlns:inkscape="http://www.inkscape.org/namespaces/inkscape"
   enable-background="new 0 0 100 100"
   xml:space="preserve"
   height="300"
   width="300"
   version="1.0"
   y="0px"
   x="0px"
   viewBox="0 0 199.99999 199.99998"
   id="svg10"
   sodipodi:docname="illustration-shortcut.svg"
   inkscape:version="0.92.4 (unknown)"><metadata
   id="metadata16"><rdf:RDF><cc:Work
       rdf:about=""><dc:format>image/svg+xml</dc:format><dc:type
         rdf:resource="http://purl.org/dc/dcmitype/StillImage" /><dc:title /></cc:Work></rdf:RDF></metadata><defs
   id="defs14" /><sodipodi:namedview
   pagecolor="#ffffff"
   bordercolor="#666666"
   borderopacity="1"
   objecttolerance="10"
   gridtolerance="10"
   guidetolerance="10"
   inkscape:pageopacity="0"
   inkscape:pageshadow="2"
   inkscape:window-width="1855"
   inkscape:window-height="1056"
   id="namedview12"
   showgrid="false"
   inkscape:zoom="2.4010092"
   inkscape:cx="-21.865806"
   inkscape:cy="49.146"
   inkscape:window-x="65"
   inkscape:window-y="24"
   inkscape:window-maximized="1"
   inkscape:current-layer="svg10" />
    <path
   class="primary"
   d="m 129.65875,40.785559 h -13.30757 v 20.020976 c 0,7.868005 -4.25929,15.150657 -11.11617,19.008025 L 69.983468,99.646604 c -0.447839,0.252763 -0.726492,0.730466 -0.726492,1.245976 v 29.97684 c 0,0.5155 0.278653,0.99317 0.726492,1.24597 l 35.251542,19.83203 c 6.85688,3.85738 11.11617,11.14002 11.11617,19.00803 v 19.27074 c 0,5.62871 -4.56196,10.19066 -10.19066,10.19066 -5.62872,0 -10.190667,-4.56195 -10.190667,-10.19066 v -19.27074 c 0,-0.5155 -0.278654,-0.99318 -0.726493,-1.24597 L 59.991833,149.87744 C 53.134945,146.02007 48.875658,138.73742 48.875658,130.86942 v -29.97684 c 0,-7.868011 4.259287,-15.150664 11.116175,-19.008032 L 95.24336,62.052507 c 0.447839,-0.252769 0.726493,-0.730467 0.726493,-1.245972 V 40.785559 H 82.662278 L 106.15787,0.08406798 Z"
   id="path2"
   inkscape:connector-curvature="0"
   style="opacity:1;stroke-width:2.03813171" />
    <path
   class="primary"
   d="m 99.070285,136.27598 c 0,3.52022 2.854025,6.37424 6.374255,6.37424 3.52022,0 6.37424,-2.85402 6.37424,-6.37424 0,-3.52023 -2.85402,-6.37425 -6.37424,-6.37425 -3.52023,0 -6.374255,2.85402 -6.374255,6.37425 z"
   id="path4"
   inkscape:connector-curvature="0"
   style="stroke-width:2.01270819;opacity:0.3" />
    <path
   class="primary"
   d="m 99.070285,92.330508 c 0,3.520226 2.854025,6.374244 6.374255,6.374244 3.52022,0 6.37424,-2.854018 6.37424,-6.374244 0,-3.520227 -2.85402,-6.374247 -6.37424,-6.374247 -3.52023,0 -6.374255,2.85402 -6.374255,6.374247 z"
   id="path6"
   inkscape:connector-curvature="0"
   style="stroke-width:2.01270819;opacity:0.3" />
    <path
   class="primary"
   d="m 99.070285,114.30324 c 0,3.52023 2.854025,6.37425 6.374255,6.37425 3.52022,0 6.37424,-2.85402 6.37424,-6.37425 0,-3.52023 -2.85402,-6.37425 -6.37424,-6.37425 -3.52023,0 -6.374255,2.85402 -6.374255,6.37425 z"
   id="path8"
   inkscape:connector-curvature="0"
   style="stroke-width:2.01270819;opacity:0.3" />
</svg>