<?xml version="1.0" encoding="UTF-8" standalone="no"?>
<svg
   xmlns:dc="http://purl.org/dc/elements/1.1/"
   xmlns:cc="http://creativecommons.org/ns#"
   xmlns:rdf="http://www.w3.org/1999/02/22-rdf-syntax-ns#"
   xmlns:svg="http://www.w3.org/2000/svg"
   xmlns="http://www.w3.org/2000/svg"
   xmlns:sodipodi="http://sodipodi.sourceforge.net/DTD/sodipodi-0.dtd"
   xmlns:inkscape="http://www.inkscape.org/namespaces/inkscape"
   version="1.1"
   y="0px"
   x="0px"
   viewBox="0 0 41.003983 36.999996"
   id="svg92"
   sodipodi:docname="illustration-brain.svg"
   inkscape:version="0.92.4 (unknown)">
  <metadata
     id="metadata98">
    <rdf:RDF>
      <cc:Work
         rdf:about="">
        <dc:format>image/svg+xml</dc:format>
        <dc:type
           rdf:resource="http://purl.org/dc/dcmitype/StillImage" />
      </cc:Work>
    </rdf:RDF>
  </metadata>
  <defs
     id="defs96" />
  <sodipodi:namedview
     pagecolor="#ffffff"
     bordercolor="#666666"
     borderopacity="1"
     objecttolerance="10"
     gridtolerance="10"
     guidetolerance="10"
     inkscape:pageopacity="0"
     inkscape:pageshadow="2"
     inkscape:window-width="1855"
     inkscape:window-height="1176"
     id="namedview94"
     showgrid="false"
     inkscape:zoom="18.04078"
     inkscape:cx="19.417268"
     inkscape:cy="25.902183"
     inkscape:window-x="65"
     inkscape:window-y="24"
     inkscape:window-maximized="1"
     inkscape:current-layer="svg92" />
  <title
     id="title2">Brain 03</title>
  <desc
     id="desc4">Created with Sketch.</desc>
  <g
     transform="rotate(90.024 24.75 19.251)"
     id="g40">
    <path
       class="primary"
       fill="#ffecb2"
       d="m15.205 8.416a1.4936 1.3665 0 0 1 0.01367 0.021484 1.4936 1.3665 0 0 1 0.06055 0.125 1.4936 1.3665 0 0 1 0.04687 0.12891 1.4936 1.3665 0 0 1 0.0332 0.13281 1.4936 1.3665 0 0 1 0.01758 0.13672 1.4936 1.3665 0 0 1 0.0039 0.095703 1.4936 1.3665 0 0 1 -0.0078 0.13672 1.4936 1.3665 0 0 1 -0.02149 0.13477 1.4936 1.3665 0 0 1 -0.03711 0.13281 1.4936 1.3665 0 0 1 -0.05078 0.12891 1.4936 1.3665 0 0 1 -0.06445 0.12305 1.4936 1.3665 0 0 1 -0.07813 0.11523 1.4936 1.3665 0 0 1 -0.0918 0.10938 1.4936 1.3665 0 0 1 -0.10156 0.099609 1.4936 1.3665 0 0 1 -0.11133 0.08984 1.4936 1.3665 0 0 1 -0.09766 0.06445c1.5203 0.42545 3.0542 0.27464 3.7461-0.92383 0.276-0.4779 0.111-1.0887-0.367-1.3649-0.479-0.2761-1.089-0.113-1.366 0.3653-0.169 0.2931-0.799 0.3681-1.527 0.1484z"
       id="path6"
       style="fill:#ffc000;fill-opacity:1;opacity:0.3" />
    <path
       class="primary"
       fill="#ffecb2"
       d="m10.309 15a1.4936 1.3824 0 0 1 0.04297 0.03711 1.4936 1.3824 0 0 1 0.09766 0.10547 1.4936 1.3824 0 0 1 0.08789 0.11133 1.4936 1.3824 0 0 1 0.07422 0.11914 1.4936 1.3824 0 0 1 0.06055 0.12695 1.4936 1.3824 0 0 1 0.04687 0.13086 1.4936 1.3824 0 0 1 0.0332 0.13477 1.4936 1.3824 0 0 1 0.01758 0.13672 1.4936 1.3824 0 0 1 0.0039 0.09961 1.4936 1.3824 0 0 1 -0.0078 0.13672 1.4936 1.3824 0 0 1 -0.02148 0.13672 1.4936 1.3824 0 0 1 -0.03711 0.13476 1.4936 1.3824 0 0 1 -0.05078 0.12891 1.4936 1.3824 0 0 1 -0.06641 0.125 1.4936 1.3824 0 0 1 -0.07813 0.11719 1.4936 1.3824 0 0 1 -0.08984 0.11133 1.4936 1.3824 0 0 1 -0.10156 0.09961 1.4936 1.3824 0 0 1 -0.11133 0.0918 1.4936 1.3824 0 0 1 -0.12305 0.08008 1.4936 1.3824 0 0 1 -0.03516 0.01953c0.306-0.073 0.579-0.184 0.949-0.184 2.2091 0 4 1.7909 4 4 0 0.55228 0.44772 1 1 1s1-0.44772 1-1c0-1.482-0.53731-2.8379-1.4277-3.8848 0.849-0.376 1.584-1.015 2.074-1.865 0.277-0.478 0.114-1.089-0.365-1.365-0.478-0.276-1.089-0.113-1.365 0.365-0.531 0.92-1.577 1.394-2.602 1.213-0.712-0.298-1.494-0.463-2.314-0.463z"
       id="path8"
       style="fill:#ffc000;fill-opacity:1;opacity:0.3" />
    <path
       class="primary"
       fill="#ffc000"
       d="m8.0938 15.162a1.4936 1.3824 0 0 1 0.042969 -0.05078 1.4936 1.3824 0 0 1 0.10156 -0.10156 1.4936 1.3824 0 0 1 0.11328 -0.0918 1.4936 1.3824 0 0 1 0.12109 -0.08008 1.4936 1.3824 0 0 1 0.12891 -0.06836 1.4936 1.3824 0 0 1 0.13672 -0.05664 1.4936 1.3824 0 0 1 0.14258 -0.04297 1.4936 1.3824 0 0 1 0.14453 -0.03125 1.4936 1.3824 0 0 1 0.14844 -0.01563 1.4936 1.3824 0 0 1 0.10547 -0.0039 1.4936 1.3824 0 0 1 0.15039 0.0059 1.4936 1.3824 0 0 1 0.14648 0.02148 1.4936 1.3824 0 0 1 0.14453 0.0332 1.4936 1.3824 0 0 1 0.14062 0.04883 1.4936 1.3824 0 0 1 0.13477 0.05859 1.4936 1.3824 0 0 1 0.11133 0.06445c0.31484-2.3358 1.5331-4.0943 3.0254-4.6172a1.4936 1.3665 0 0 1 -0.08789 -0.04883 1.4936 1.3665 0 0 1 -0.11914 -0.08399 1.4936 1.3665 0 0 1 -0.10938 -0.0918 1.4936 1.3665 0 0 1 -0.09961 -0.10352 1.4936 1.3665 0 0 1 -0.08594 -0.11133 1.4936 1.3665 0 0 1 -0.07422 -0.11719 1.4936 1.3665 0 0 1 -0.06055 -0.125 1.4936 1.3665 0 0 1 -0.04687 -0.13086 1.4936 1.3665 0 0 1 -0.0332 -0.13281 1.4936 1.3665 0 0 1 -0.01758 -0.13477 1.4936 1.3665 0 0 1 -0.0039 -0.097656 1.4936 1.3665 0 0 1 0.0078 -0.13672 1.4936 1.3665 0 0 1 0.02148 -0.13477 1.4936 1.3665 0 0 1 0.03711 -0.13086 1.4936 1.3665 0 0 1 0.05078 -0.12891 1.4936 1.3665 0 0 1 0.06445 -0.12305 1.4936 1.3665 0 0 1 0.07813 -0.11719 1.4936 1.3665 0 0 1 0.0039 -0.00586c-2.494 0.7605-4.2914 3.5173-4.5642 6.8833z"
       id="path10" />
    <path
       class="primary"
       d="m24.962 15.307 0.04494 2.2436c1.324-1.162 2.25-1.551 3.993-1.551 0.55228 0 1-0.44772 1-1s-0.44772-1-1-1c-1.4245 0-3.0087 0.47784-4.0377 1.3071z"
       fill="#ffecb2"
       id="path12"
       style="fill:#ffc000;fill-opacity:1;opacity:0.3" />
    <path
       class="primary"
       fill="#ffecb2"
       d="m22.896 30.881v-2.076c-1.661-0.486-2.896-1.986-2.896-3.805 0-0.55228-0.44772-1-1-1s-1 0.44772-1 1c0 2.9341 2.1136 5.3598 4.8965 5.8809z"
       id="path14"
       style="fill:#ffc000;fill-opacity:1;opacity:0.3" />
    <path
       class="primary"
       fill="#ffecb2"
       d="m14.547 34.928 1.891 1.967c0.586-1.113 1.717-1.895 3.062-1.895 0.55228 0 1-0.44772 1-1s-0.44772-1-1-1c-0.90426 0-1.7572 0.21881-2.5098 0.60547-0.48869 0.25109-1.4367 0.99839-1.4902 1.0293-0.2938 0.16963-0.62943 0.21216-0.95312 0.29297z"
       id="path16"
       style="fill:#ffc000;fill-opacity:1;opacity:0.3" />
    <path
       class="primary"
       fill="#ffecb2"
       d="m31.727 37.15 1.9531-2.1543c-0.407-0.075-0.816-0.151-1.18-0.361-0.054-0.031-0.108-0.058-0.164-0.078-0.991-0.964-2.345-1.557-3.836-1.557-0.55228 0-1 0.44772-1 1s0.44772 1 1 1c1.4545 0 2.6982 0.88756 3.2266 2.1504z"
       id="path18"
       style="fill:#ffc000;fill-opacity:1;opacity:0.3" />
    <path
       class="primary"
       fill="#ffecb2"
       d="m10.652 24.951v2.1836c0.05152-0.03834 0.07907-0.09884 0.13281-0.13477 1.3807 0 2.5449 1.1193 2.5449 2.5 0 0.55228 0.44772 1 1 1s1-0.44772 1-1c0-2.4853-2.0147-4.5-4.5-4.5-0.08354 0-0.10049-0.0452-0.17773-0.04883z"
       id="path20"
       style="fill:#ffc000;fill-opacity:1;opacity:0.3" />
    <path
       class="primary"
       fill="#ffecb2"
       d="m34.293 10.031-1.361-1.7029c0.0038 0.022264 0.01806 0.040113 0.02148 0.0625-0.803 0.2944-1.503 0.1934-1.685-0.123-0.277-0.4783-0.887-0.6414-1.366-0.3653-0.47829 0.27614-0.64333 0.88694-0.36719 1.3652 0.83943 1.4539 2.8991 1.6528 4.6973 0.74219 0.02109 0.0019 0.03952 0.01906 0.06055 0.02148z"
       id="path22"
       style="fill:#ffc000;fill-opacity:1;opacity:0.3" />
    <path
       class="primary"
       fill="#00f400"
       d="m34.348 10.051-1.448-1.8127c0.0062 0.03178 0.02579 0.0578 0.03125 0.089844l1.3613 1.7031c0.01901 0.0022 0.03573 0.01692 0.05469 0.01953z"
       id="path24" />
    <path
       class="primary"
       fill="#ffecb2"
       d="m38.049 17.148-0.186-2.148h-0.863c-3.3137 0-6 2.6863-6 6 0 0.55228 0.44772 1 1 1s1-0.44772 1-1c0-2.2091 1.7909-4 4-4h0.5c0.19205 0 0.36469 0.10032 0.54883 0.14844z"
       id="path26"
       style="fill:#ffc000;fill-opacity:1;opacity:0.3" />
    <path
       class="primary"
       fill="#00f400"
       d="m38.082 17.156-0.187-2.156h-0.03125l0.18555 2.1484c0.01104 0.0029 0.0222 0.0048 0.0332 0.0078z"
       id="path28" />
    <path
       class="primary"
       fill="#ffecb2"
       d="m37.436 27.053 0.82812-2.2578c-0.251 0.091-0.497 0.205-0.764 0.205h-0.33008c-1.2356 0-2.3548 0.49851-3.168 1.3047-1.152 0.487-2.503 0.042-3.137-1.055-0.276-0.478-0.887-0.641-1.365-0.365s-0.641 0.887-0.365 1.365c0.78432 1.3585 2.1783 2.1615 3.6484 2.2441-0.07387 0.32346-0.11328 0.66001-0.11328 1.0059 0 0.55228 0.44772 1 1 1s1-0.44772 1-1c0-1.3807 1.1193-2.5 2.5-2.5h0.21484c0.02073 0.01401 0.03041 0.03834 0.05078 0.05273z"
       id="path30"
       style="fill:#ffc000;fill-opacity:1;opacity:0.3" />
    <path
       class="primary"
       fill="#00f400"
       d="m37.523 27.145 0.84766-2.3184-0.0957-0.03516c-0.0039 0.0014-0.0078 0.0025-0.01172 0.0039l-0.82812 2.2578c0.03536 0.02499 0.05362 0.06566 0.08789 0.0918z"
       id="path32" />
    <path
       class="primary"
       fill="#ffc000"
       d="m25.127 39.127-1.0488 2.6055c1.001 1.365 2.6 2.268 4.422 2.268 3.0376 0 5.5-2.4624 5.5-5.5 0-0.4843-0.06215-0.95493-0.17969-1.4023 2.4145 0.22487 4.962-1.0253 6.2949-3.334 1.4199-2.4594 1.1777-5.4114-0.43555-7.3555 1.687-0.976 2.821-3.052 2.821-5.408 0-2.205-0.992-4.165-2.502-5.207-0.073-3.862-2.186-7.1153-5.066-7.6992-0.437-2.8835-2.927-5.0938-5.932-5.0938-1.875 0-3.468 0.9387-4.568 2.2852l1.107 1.8242c0.68-1.2377 1.949-2.1094 3.461-2.1094 1.945 0 3.5406 1.3986 3.9004 3.2383l1.4473 1.8125c1.762 0.242 3.29 2.25 3.596 4.949h-0.04883l0.1875 2.1562c1.336 0.371 2.418 1.878 2.418 3.844 0 1.8706-0.9799 3.3288-2.2246 3.791l0.0957 0.03516-0.84766 2.3184c1.5851 1.2089 2.0258 3.6022 0.86133 5.6191-0.92815 1.6076-2.6903 2.4768-4.3223 2.3477l-2.2461 2.4766c0.082 0.296 0.184 0.588 0.184 0.911 0 1.933-1.567 3.5-3.5 3.5-1.711 0-3.068-1.251-3.373-2.873z"
       id="path34" />
    <path
       class="primary"
       fill="#00f400"
       d="m25.111 39.047-1.0684 2.6543c0.0092 0.01284 0.0258 0.01849 0.03516 0.03125l1.0488-2.6055c-0.0051-0.02688-0.01119-0.05298-0.01563-0.08008z"
       id="path36" />
    <path
       class="primary"
       fill="#ffc000"
       d="m19 3c-2.9239 0-5.3249 2.1065-5.8574 4.875 0.02245-0.012264 0.04524-0.023987 0.06836-0.035156 0.04387-0.02091 0.08885-0.039814 0.13476-0.056641 0.04671-0.0165 0.09429-0.030841 0.14258-0.042969 0.04826-0.012003 0.09715-0.021781 0.14648-0.029297 0.04848-0.00807 0.09737-0.013933 0.14648-0.017578 0.03577-0.00183 0.0716-0.00248 0.10742-0.00195 0.04955-0.0003009 0.0991 0.00165 0.14844 0.00586 0.04919 0.00494 0.09808 0.012107 0.14648 0.021484 0.04941 0.0088 0.0983 0.019884 0.14648 0.033203 0.04704 0.013521 0.09332 0.029166 0.13867 0.046875 0.04596 0.017465 0.09094 0.037021 0.13477 0.058594 0.04361 0.022134 0.08598 0.046253 0.12695 0.072266 0.04118 0.025512 0.08094 0.05289 0.11914 0.082031 0.03815 0.029556 0.07465 0.060845 0.10938 0.09375 0.03503 0.032315 0.06828 0.066212 0.09961 0.10156 0.01207 0.0154 0.02379 0.031029 0.03516 0.046875 0.353-1.8481 1.955-3.2541 3.906-3.2541 2.2091 0 4 1.7909 4 4v19.744h0.32617v2.2734h-0.326v7.483c0 1.933-1.567 3.5-3.5 3.5s-3.5-1.567-3.5-3.5c0-0.50609 0.11727-0.98165 0.31055-1.416l-2.002-2.084c-1.733 0.313-3.692-0.501-4.6938-2.236-1.0457-1.812-0.6542-3.961 0.6778-5.264v-2.65c-0.4561-0.074-0.9299-0.127-1.2266-0.344-0.9191-0.674-1.5664-1.973-1.5664-3.506 0-1.6402 0.55069-2.9923 1.8047-3.6172-0.00846 0.000068-0.016927 0.000068-0.025391 0-0.049554 0.000327-0.099094-0.0016-0.14844-0.0059-0.049837-0.0049-0.099379-0.01202-0.14844-0.02148-0.048744-0.0088-0.096981-0.01992-0.14453-0.0332-0.04773-0.01408-0.094664-0.03038-0.14062-0.04883-0.045284-0.0175-0.089608-0.03705-0.13281-0.05859-0.044255-0.02207-0.087279-0.04618-0.12891-0.07227-0.04054-0.02618-0.079651-0.05421-0.11719-0.08398-0.038122-0.02955-0.074625-0.06084-0.10938-0.09375-0.035053-0.03294-0.068297-0.06749-0.099609-0.10352-0.030672-0.03641-0.059354-0.07422-0.085937-0.11328-0.02686-0.03855-0.05163-0.07831-0.074219-0.11914-0.023129-0.04132-0.043988-0.08369-0.0625-0.12695-0.017967-0.04287-0.033611-0.08655-0.046875-0.13086-0.012831-0.04441-0.023261-0.08939-0.03125-0.13477-0.00896-0.04524-0.015483-0.09087-0.019531-0.13672-0.0009871-0.01691-0.00164-0.03384-0.00195-0.05078-1.3615 1.08-2.2872 2.876-2.2872 4.951 0 2.4035 1.179 4.5143 2.9219 5.4648-1.6238 1.9542-1.9324 4.8821-0.53711 7.2988 1.3329 2.3087 3.8804 3.5588 6.2949 3.334-0.118 0.447-0.18 0.918-0.18 1.402 0 3.0376 2.4624 5.5 5.5 5.5 1.8602 0 3.5046-0.92442 4.5-2.3379 0.01125 0.01598 0.03155 0.02321 0.04297 0.03906l1.0684-2.6543c-0.03-0.185-0.111-0.353-0.111-0.547-0.126-7.258-0.024-14.516 0.027-21.789l-0.41211 0.0332-0.06836-1.1934 0.44141-0.08984 0.012-6.461c0.000884-0.50859 0.11597-0.98609 0.28906-1.4336l-1.195-1.9707c-0.025 0.0352-0.07 0.0502-0.094 0.0859-1.075-1.6167-2.913-2.6816-5-2.6816z"
       id="path38" />
  </g>
  <g
     transform="translate(-3.4981 -5.001)"
     stroke="#000"
     stroke-width=".60882"
     fill="#fff"
     id="g90">
    <ellipse
       rx="1.2815"
       ry="1.2591"
       transform="rotate(90.024)"
       cy="-38.52"
       cx="33.602"
       id="ellipse42" />
    <ellipse
       rx="1.2815"
       ry="1.2591"
       transform="rotate(90.024)"
       cy="-38.475"
       cx="13.445"
       id="ellipse44" />
    <ellipse
       rx="1.2815"
       ry="1.2591"
       transform="rotate(90.024)"
       cy="-31.602"
       cx="8.8381"
       id="ellipse46" />
    <ellipse
       rx="1.2815"
       ry="1.2591"
       transform="rotate(90.024)"
       cy="-32.723"
       cx="16.613"
       id="ellipse48" />
    <ellipse
       rx="1.2815"
       ry="1.2591"
       transform="rotate(90.024)"
       cy="-26.116"
       cx="15.535"
       id="ellipse50" />
    <ellipse
       rx="1.2815"
       ry="1.2591"
       transform="rotate(90.024)"
       cy="-21.397"
       cx="9.1527"
       id="ellipse52" />
    <ellipse
       rx="1.2815"
       ry="1.2591"
       transform="rotate(90.024)"
       cy="-11.06"
       cx="14.366"
       id="ellipse54" />
    <ellipse
       rx="1.2815"
       ry="1.2591"
       transform="rotate(90.024)"
       cy="-7.2399"
       cx="23.535"
       id="ellipse56" />
    <ellipse
       rx="1.2815"
       ry="1.2591"
       transform="rotate(90.024)"
       cy="-17.487"
       cx="23.49"
       id="ellipse58" />
    <ellipse
       rx="1.2815"
       ry="1.2591"
       transform="rotate(90.024)"
       cy="-40.768"
       cx="23.49"
       id="ellipse60" />
    <ellipse
       rx="1.2815"
       ry="1.2591"
       transform="rotate(90.024)"
       cy="-31.419"
       cx="38.456"
       id="ellipse62" />
    <ellipse
       rx="1.2815"
       ry="1.2591"
       transform="rotate(90.024)"
       cy="-26.476"
       cx="31.579"
       id="ellipse64" />
    <ellipse
       rx="1.2815"
       ry="1.2591"
       transform="rotate(90.024)"
       cy="-21.802"
       cx="29.332"
       id="ellipse66" />
    <ellipse
       rx="1.2815"
       ry="1.2591"
       transform="rotate(90.024)"
       cy="-17.667"
       cx="33.422"
       id="ellipse68" />
    <ellipse
       rx="1.2815"
       ry="1.2591"
       transform="rotate(90.024)"
       cy="-21.217"
       cx="37.961"
       id="ellipse70" />
    <ellipse
       rx="1.2815"
       ry="1.2591"
       transform="rotate(90.024)"
       cy="-11.15"
       cx="32.388"
       id="ellipse72" />
    <ellipse
       rx="1.2815"
       ry="1.2591"
       transform="rotate(90.024)"
       cy="-31.195"
       cx="23.759"
       id="ellipse74" />
    <ellipse
       rx="1.2815"
       ry="1.2591"
       transform="rotate(90.024)"
       cy="-39.311"
       cx="17.859"
       id="ellipse76" />
    <ellipse
       rx="1.2815"
       ry="1.2591"
       transform="rotate(90.024)"
       cy="-22.976"
       cx="18.494"
       id="ellipse78" />
    <ellipse
       rx="1.2815"
       ry="1.2591"
       transform="rotate(90.024)"
       cy="-17.701"
       cx="13.981"
       id="ellipse80" />
    <ellipse
       rx="1.2815"
       ry="1.2591"
       transform="rotate(90.024)"
       cy="-13.378"
       cx="19.384"
       id="ellipse82" />
    <ellipse
       rx="1.2815"
       ry="1.2591"
       transform="rotate(90.024)"
       cy="-13.633"
       cx="27.965"
       id="ellipse84" />
    <ellipse
       rx="1.2815"
       ry="1.2591"
       transform="rotate(90.024)"
       cy="-32.51"
       cx="29.299"
       id="ellipse86" />
    <ellipse
       rx="1.2815"
       ry="1.2591"
       transform="rotate(90.024)"
       cy="-39.819"
       cx="28.981"
       id="ellipse88" />
  </g>
</svg>
