<?xml version="1.0" encoding="UTF-8" standalone="no"?>
<svg
   xmlns:dc="http://purl.org/dc/elements/1.1/"
   xmlns:cc="http://creativecommons.org/ns#"
   xmlns:rdf="http://www.w3.org/1999/02/22-rdf-syntax-ns#"
   xmlns:svg="http://www.w3.org/2000/svg"
   xmlns="http://www.w3.org/2000/svg"
   version="1.1"
   x="0px"
   y="0px"
   viewBox="0 0 110.01 98.000001"
   enable-background="new 0 0 100 100"
   xml:space="preserve"
   id="svg18"
   <metadata
     id="metadata24"><rdf:RDF><cc:Work
         rdf:about=""><dc:format>image/svg+xml</dc:format><dc:type
           rdf:resource="http://purl.org/dc/dcmitype/StillImage" /><dc:title></dc:title></cc:Work></rdf:RDF></metadata><defs
     id="defs22" /><g
     id="g12"
     transform="translate(5.005,6.5309965)"><g
       id="g8"><path
         d="M 94.007,53.278 86.902,23.948 C 86.51,22.36 85.556,21.052 84.354,20.101 83.148,19.157 81.651,18.538 80.016,18.531 H 10.994 c -3.313,0.007 -5.992,2.688 -5.999,6 l 0.01,42.938 c 0.007,3.313 2.687,5.992 6,6 h 6.201 c 0.927,4.563 4.962,8 9.799,8 4.837,0 8.872,-3.437 9.799,-8 h 26.902 c 0.927,4.563 4.962,8 9.799,8 4.837,0 8.872,-3.437 9.799,-8 h 5.701 c 3.313,-0.008 5.992,-2.687 6,-6 v -5.832 c -0.009,-2.44 -0.432,-5.986 -0.998,-8.359 z M 87.462,43.25 H 74.005 c -0.205,0 -0.387,-0.082 -0.529,-0.222 -0.14,-0.142 -0.221,-0.323 -0.221,-0.528 v -12 c 0,-0.205 0.081,-0.387 0.221,-0.528 0.142,-0.141 0.324,-0.222 0.529,-0.222 H 84.192 Z M 8.997,29.75 h 8.009 c 0.205,0 0.387,0.081 0.529,0.222 0.14,0.142 0.221,0.323 0.221,0.528 v 12 c 0,0.205 -0.082,0.387 -0.221,0.528 -0.142,0.14 -0.324,0.222 -0.529,0.222 H 9.001 Z m 18.008,47.719 c -3.309,0 -6,-2.691 -6,-6 0,-3.309 2.691,-6 6,-6 3.309,0 6,2.691 6,6 0,3.309 -2.692,6 -6,6 z m 46.5,0 c -3.309,0 -6,-2.691 -6,-6 0,-3.309 2.691,-6 6,-6 3.309,0 6,2.691 6,6 0,3.309 -2.692,6 -6,6 z m 17.5,-10 c -10e-4,0.549 -0.221,1.039 -0.589,1.411 -0.372,0.368 -0.862,0.588 -1.411,0.589 h -5.701 c -0.927,-4.563 -4.961,-8 -9.799,-8 -4.837,0 -8.872,3.437 -9.799,8 H 36.804 c -0.927,-4.563 -4.961,-8 -9.799,-8 -4.837,0 -8.872,3.437 -9.799,8 H 11.005 C 10.456,69.468 9.965,69.248 9.594,68.88 9.225,68.508 9.006,68.018 9.005,67.469 v -6 c 0,-1.291 0,-3.061 0,-4.75 h 72 c 0.69,0 1.25,-0.56 1.25,-1.25 0,-0.69 -0.56,-1.25 -1.25,-1.25 H 9.004 c 0,-0.261 -0.002,-8.469 -0.002,-8.469 h 8.004 c 1.796,-0.005 3.245,-1.455 3.25,-3.25 v -12 c -0.004,-1.796 -1.453,-3.245 -3.25,-3.25 H 8.996 L 8.995,24.53 c 0,-0.549 0.22,-1.039 0.589,-1.41 0.371,-0.368 0.861,-0.589 1.41,-0.589 h 69.021 c 0.565,-0.007 1.28,0.249 1.865,0.714 0.59,0.459 1.006,1.094 1.133,1.645 l 0.572,2.36 h -9.581 c -1.796,0.005 -3.245,1.454 -3.25,3.25 v 12 c 0.005,1.795 1.454,3.245 3.25,3.25 h 14.063 l 2.052,8.47 c 0.47,1.904 0.894,5.456 0.886,7.417 z"
         id="path2" /><path
         d="m 63.005,27.25 h -12 c -1.796,0.005 -3.245,1.454 -3.25,3.25 v 12 c 0.005,1.795 1.454,3.245 3.25,3.25 h 12 c 1.796,-0.005 3.245,-1.455 3.25,-3.25 v -12 c -0.005,-1.796 -1.454,-3.245 -3.25,-3.25 z m 0.528,15.778 c -0.142,0.14 -0.323,0.222 -0.528,0.222 h -12 c -0.205,0 -0.387,-0.082 -0.529,-0.222 -0.14,-0.142 -0.221,-0.323 -0.221,-0.528 v -12 c 0,-0.205 0.081,-0.387 0.221,-0.528 0.142,-0.141 0.324,-0.222 0.529,-0.222 h 12 c 0.205,0 0.387,0.081 0.528,0.222 0.14,0.142 0.221,0.323 0.222,0.528 v 12 c -0.001,0.205 -0.082,0.387 -0.222,0.528 z"
         id="path4" /><path
         d="m 40.005,27.25 h -12 c -1.796,0.005 -3.245,1.454 -3.25,3.25 v 12 c 0.005,1.795 1.454,3.245 3.25,3.25 h 12 c 1.796,-0.005 3.245,-1.455 3.25,-3.25 v -12 c -0.005,-1.796 -1.454,-3.245 -3.25,-3.25 z m 0.528,15.778 c -0.142,0.14 -0.323,0.222 -0.528,0.222 h -12 c -0.205,0 -0.387,-0.082 -0.529,-0.222 -0.14,-0.142 -0.221,-0.323 -0.221,-0.528 v -12 c 0,-0.205 0.081,-0.387 0.221,-0.528 0.142,-0.141 0.324,-0.222 0.529,-0.222 h 12 c 0.205,0 0.387,0.081 0.528,0.222 0.14,0.142 0.221,0.323 0.222,0.528 v 12 c -0.001,0.205 -0.082,0.387 -0.222,0.528 z"
         id="path6" /></g><path
       d="m 80.894,32.331 c -0.663,-0.497 -1.603,-0.362 -2.1,0.3 l -3,4 c -0.497,0.663 -0.362,1.604 0.3,2.101 0.663,0.497 1.604,0.362 2.101,-0.3 l 3,-4 c 0.496,-0.663 0.362,-1.604 -0.301,-2.101 z"
       id="path10" /></g></svg>