<?xml version="1.0" encoding="UTF-8" standalone="no"?>
<svg width="291px" height="88px" viewBox="0 0 291 88" version="1.1" xmlns="http://www.w3.org/2000/svg" xmlns:xlink="http://www.w3.org/1999/xlink" xmlns:sketch="http://www.bohemiancoding.com/sketch/ns">
    <!-- Generator: Sketch 3.3.2 (12043) - http://www.bohemiancoding.com/sketch -->
    <title>Logo</title>
    <desc>Created with Sketch.</desc>
    <defs></defs>
    <g id="Templates-Client" stroke="none" stroke-width="1" fill="none" fill-rule="evenodd" sketch:type="MSPage">
        <g id="Fietsmateriaal" sketch:type="MSArtboardGroup" transform="translate(-206.000000, -68.000000)">
            <g id="Header" sketch:type="MSLayerGroup">
                <g id="Logo" transform="translate(206.000000, 68.000000)" sketch:type="MSShapeGroup">
                    <path d="M75.3731486,25.8054054 L69.7652955,27.8308108 L68.88798,32.3756757 L66.3158998,32.3756757 L65.4843005,36.2318919 L68.0569249,36.2318919 L65.5093356,47.4589189 C65.3879699,47.9843243 65.3264708,48.5151351 65.3264708,49.0545946 C65.3286477,50.7 65.8255392,52.0162162 66.8209549,53.0324324 C67.8158264,54.0464865 69.1247245,54.552973 70.7813923,54.5540541 C73.2870751,54.5551351 75.2730083,54.3113514 76.7337496,53.832973 L76.7337496,49.5113514 C75.0993957,50.1740541 73.9156728,50.5102703 73.1455726,50.5118919 C72.2693456,50.5118919 71.5879566,50.3194595 71.1226311,49.9102703 C70.6573055,49.5010811 70.4314457,48.8864865 70.4325342,48.1075676 C70.4341669,47.5691892 70.5245109,46.9086486 70.7062871,46.12 L72.9692387,36.2318919 L79.0832354,36.2318919 L79.9142905,32.3756757 L73.8373022,32.3756757 L75.3731486,25.8054054" id="Fill-4" fill="#00889E"></path>
                    <path d="M54.1945776,40.4848649 C52.8720735,41.0648649 51.2638431,41.3513514 49.3698865,41.3513514 C48.3075292,41.3513514 47.3202771,41.2189189 46.4070417,40.9545946 L46.251389,40.9091892 L46.3188748,40.7621622 C46.9344107,39.3994595 47.7905008,38.2583784 48.8849683,37.3459459 C49.9788915,36.4335135 51.0684608,35.9643243 52.1476895,35.9643243 C54.770384,35.9664865 56.2093556,36.5583784 56.2273155,37.8962162 C56.2311252,39.0308108 55.5208915,39.9097297 54.1945776,40.4848649 L54.1945776,40.4848649 Z M58.9702871,33.4118919 C57.5487312,32.4502703 55.6868848,31.9637838 53.3700534,31.9637838 C49.4341068,31.9659459 46.2704374,33.2091892 43.8436694,35.6983784 C41.4163573,38.1924324 40.2059666,41.3021622 40.2048781,45.0605405 C40.2059666,48.0275676 41.0440968,50.3367568 42.7132821,52.0227027 C44.3868214,53.7108108 46.5599733,54.552973 49.267025,54.5540541 C51.7449516,54.5540541 53.8424541,54.1762162 55.5600768,53.4259459 L56.113025,48.447027 C55.4795292,48.9572973 54.6669783,49.4172973 53.6742838,49.8324324 C52.5286578,50.3102703 51.510384,50.5535135 50.61402,50.5535135 C48.9606177,50.5545946 47.6457329,50.1340541 46.6944007,49.2821622 C45.7408915,48.4286486 45.2674023,47.2 45.2695793,45.6378378 C45.2695793,45.3713514 45.2831853,45.0594595 45.3114858,44.6994595 L45.3267245,44.5189189 L45.4987045,44.5778378 C46.9627112,45.0805405 48.4599165,45.3313514 49.991409,45.3313514 C53.1360301,45.3313514 55.7685209,44.6302703 57.9046644,43.2345946 C60.0337329,41.8383784 61.0813957,39.9475676 61.0852053,37.5054054 C61.0813957,35.7167568 60.3847679,34.3724324 58.9702871,33.4118919 L58.9702871,33.4118919 Z" id="Fill-5" fill="#00889E"></path>
                    <path d="M89.8907613,36.5735135 C90.5438497,36.1659459 91.3155826,35.9637838 92.1939866,35.9648649 C93.5883306,35.9659459 95.0893456,36.6681081 96.7095492,38.0427027 L98.963793,33.6237838 C96.3019132,32.512973 94.1363806,31.9632432 92.484611,31.9637838 C90.0066845,31.9637838 87.9298631,32.5913514 86.236187,33.8405405 C84.5479533,35.0891892 83.7152654,36.7394595 83.712,38.8432432 C83.7130885,39.792973 83.9634391,40.6524324 84.4668614,41.4335135 C84.9719165,42.2140541 85.708818,42.8783784 86.686818,43.4254054 C87.6811452,43.9794595 88.826227,44.592973 90.1242404,45.2643243 C91.4347713,45.9454054 92.1422838,46.6767568 92.1493589,47.5102703 C92.1515359,48.4383784 91.7847179,49.1989189 91.067409,49.7427027 C90.3555426,50.2854054 89.4521035,50.5540541 88.3799499,50.5540541 C86.716207,50.552973 85.0328715,49.7616216 83.3342972,48.2064865 L80.7584073,52.6064865 C83.0229917,53.9064865 85.3327479,54.5545946 87.6958397,54.5545946 C90.5199032,54.5535135 92.8231285,53.8621622 94.6256528,52.4837838 C96.4232788,51.1064865 97.3147446,49.2459459 97.3169215,46.8513514 C97.3169215,45.8875676 97.0692922,45.0427027 96.5745776,44.3043243 C96.0744207,43.5610811 95.4360267,42.972973 94.6528648,42.5378378 C93.8550083,42.0940541 92.7055726,41.4935135 91.207823,40.7389189 C89.6970117,39.9772973 88.8888147,39.1745946 88.8811953,38.267027 C88.8779299,37.5616216 89.2300534,36.9789189 89.8907613,36.5735135" id="Fill-6" fill="#00889E"></path>
                    <path d="M34.5491319,22.0821622 C33.6407947,22.0832432 32.8848447,22.3735135 32.2518932,22.96 C31.6227513,23.5481081 31.3141669,24.2664865 31.31199,25.1535135 C31.3141669,26.0389189 31.6260167,26.7578378 32.2622337,27.3448649 C32.901172,27.932973 33.6554891,28.2227027 34.5491319,28.2237838 C35.4433189,28.2227027 36.1970918,27.9297297 36.8360301,27.3356757 C37.4733356,26.74 37.7851853,26.0248649 37.7862738,25.1535135 C37.7851853,24.2675676 37.4722471,23.5481081 36.8371185,22.9610811 C36.1970918,22.3735135 35.4444073,22.0832432 34.5491319,22.0821622" id="Fill-7" fill="#00889E"></path>
                    <path d="M28.1319933,36.232973 L30.9674858,36.232973 L27.6095225,54.1421622 L32.5876895,54.1421622 L36.6803773,32.3745946 L28.944,32.3745946 L28.1319933,36.232973" id="Fill-8" fill="#00889E"></path>
                    <path d="M0.642410684,54.1421622 L5.88888815,54.1421622 L8.48001669,40.1032432 L19.1552922,40.1032432 L19.9515159,35.8951351 L9.27841736,35.8951351 L10.5943907,28.6772973 L25.2077896,28.6772973 L26.025783,24.2643243 L6.2290384,24.2643243 L0.642410684,54.1421622" id="Fill-9" fill="#00889E"></path>
                    <path d="M115.693743,40.4848649 C114.372327,41.0648649 112.762464,41.3513514 110.87014,41.3513514 C109.807783,41.3513514 108.819442,41.2189189 107.907295,40.9545946 L107.751643,40.9091892 L107.81804,40.7621622 C108.433576,39.3994595 109.290755,38.2583784 110.384134,37.3459459 C111.478057,36.4335135 112.568715,35.9643243 113.647943,35.9643243 C116.270638,35.9664865 117.709609,36.5583784 117.726481,37.8962162 C117.731379,39.0308108 117.021145,39.9097297 115.693743,40.4848649 L115.693743,40.4848649 Z M120.470541,33.4118919 C119.048985,32.4502703 117.18605,31.9637838 114.870307,31.9637838 C110.932728,31.9659459 107.770691,33.2091892 105.343923,35.6983784 C102.916611,38.1924324 101.70622,41.3021622 101.704043,45.0605405 C101.705132,48.0275676 102.544351,50.3367568 104.213536,52.0227027 C105.885987,53.7108108 108.059139,54.552973 110.765646,54.5540541 C113.244661,54.5540541 115.342708,54.1762162 117.060331,53.4254054 L117.613279,48.4459459 C116.979783,48.9567568 116.166688,49.4172973 115.173449,49.8324324 C114.028912,50.3102703 113.009549,50.5535135 112.113185,50.5535135 C110.459783,50.5545946 109.144898,50.1340541 108.194654,49.2821622 C107.240057,48.4286486 106.767656,47.2 106.768745,45.6378378 C106.768745,45.3713514 106.783439,45.0594595 106.81174,44.6994595 L106.82589,44.5189189 L106.998958,44.5778378 C108.462965,45.0805405 109.959082,45.3313514 111.491663,45.3313514 C114.635195,45.3313514 117.268775,44.6302703 119.404918,43.2345946 C121.532898,41.8383784 122.580561,39.9475676 122.583826,37.5054054 C122.581649,35.7167568 121.885022,34.3724324 120.470541,33.4118919 L120.470541,33.4118919 Z" id="Fill-10" fill="#00889E"></path>
                    <path d="M226.676334,31.9637838 C223.952955,31.9648649 221.705786,32.7421622 219.907616,34.2967568 L219.721486,34.4562162 L219.226227,31.8832432 L214.438544,32.7572973 C214.814614,34.0989189 215.002377,35.3654054 215.002377,36.5578378 C215.002377,37.0713514 214.975165,37.4762162 214.91802,37.7778378 L211.819115,54.1421622 L216.733606,54.1421622 L219.683933,38.3648649 L219.712778,38.3340541 C221.207262,36.7654054 222.912912,35.9648649 224.803058,35.9648649 L224.811222,35.9648649 C225.913309,35.9648649 226.762868,36.1951351 227.342484,36.6827027 C227.923733,37.1702703 228.207826,37.9048649 228.206738,38.8432432 C228.206738,39.5562162 228.108775,40.4281081 227.913392,41.4632432 L225.520367,54.1421622 L230.601396,54.1421622 L233.086942,40.8351351 C233.280147,39.8113514 233.374845,38.927027 233.374845,38.1848649 C233.354164,34.0005405 231.192985,31.9848649 226.676334,31.9637838" id="Fill-11" fill="#00889E"></path>
                    <path d="M203.103649,47.5945946 C201.832304,49.6091892 200.069509,50.6367568 197.871866,50.6362162 L197.864247,50.6362162 C196.478067,50.6372973 195.406457,50.2313514 194.694047,49.4081081 C193.98218,48.5859459 193.639309,47.3713514 193.639309,45.7816216 C193.639309,43.1648649 194.285322,40.8594595 195.58007,38.88 C196.873185,36.892973 198.626728,35.8794595 200.787362,35.8827027 C202.171366,35.8816216 203.240254,36.2616216 203.954841,37.04 C204.667252,37.8178378 205.011756,38.9681081 205.011756,40.4691892 C205.011756,43.2086486 204.377716,45.5881081 203.103649,47.5945946 L203.103649,47.5945946 Z M201.347386,31.9637838 C197.63621,31.9659459 194.590097,33.3167568 192.166594,36.0335135 C189.74418,38.7540541 188.534334,42.0767568 188.533245,46.0286486 C188.534334,48.8032432 189.304978,50.9027027 190.832117,52.3594595 C192.361977,53.8178378 194.502474,54.552973 197.284631,54.5545946 C201.077442,54.552973 204.150768,53.1940541 206.546514,50.4654054 C208.940628,47.7313514 210.137412,44.3605405 210.138501,40.3259459 C210.137412,37.632973 209.375476,35.5827027 207.860311,34.1378378 C206.345689,32.6945946 204.183967,31.9648649 201.347386,31.9637838 L201.347386,31.9637838 Z" id="Fill-12" fill="#00889E"></path>
                    <path d="M251.819696,43.2902703 C250.921699,48.0664865 248.966244,50.4545946 245.953873,50.4545946 C243.162464,50.4545946 241.766487,48.78 241.766487,45.4313514 C241.766487,42.7416216 242.474544,40.5248649 243.891202,38.7816216 C245.307316,37.0389189 247.211068,36.167027 249.601917,36.167027 C251.080618,36.167027 252.151139,36.7848649 252.814568,38.02 L251.819696,43.2902703 L251.819696,43.2902703 Z M255.791018,23.3372973 L253.860598,33.4637838 L253.677189,33.3108108 C253.287513,32.987027 252.631159,32.6745946 251.715202,32.3897297 C250.798701,32.1043243 249.976354,31.9637838 249.249249,31.9637838 C245.356297,31.9648649 242.262835,33.2945946 239.924234,35.9610811 C237.586721,38.6297297 236.414972,42.0459459 236.414972,46.2335135 C236.41606,48.8167568 237.137179,50.8362162 238.572341,52.3221622 C240.008047,53.8075676 241.992891,54.5535135 244.564972,54.5545946 C247.190932,54.5524324 249.031553,53.7454054 250.148878,52.1443243 L250.403583,52.2497297 L250.040574,54.1416216 L254.913703,54.1416216 L260.521012,23.3372973 L255.791018,23.3372973 L255.791018,23.3372973 Z" id="Fill-13" fill="#00889E"></path>
                    <path d="M139.785088,31.9637838 C137.593432,31.9648649 135.600424,32.7248649 133.783205,34.2562162 L133.480063,34.5108108 L133.874093,32.3756757 L128.958514,32.3756757 L124.865282,54.1421622 L129.780861,54.1421622 L132.101503,41.8021622 C132.395392,40.28 133.112157,38.9254054 134.241456,37.7481081 C135.371299,36.5681081 136.639923,35.9632432 138.022838,35.9643243 C138.966551,35.9654054 140.020745,36.3951351 141.197937,37.2324324 L142.651603,32.3254054 C141.27413,32.0837838 140.311913,31.9637838 139.785088,31.9637838" id="Fill-14" fill="#00889E"></path>
                    <path d="M151.762187,36.5724324 C152.41582,36.1664865 153.187553,35.9643243 154.067045,35.9643243 C155.460845,35.9654054 156.962948,36.6686486 158.582063,38.0432432 L160.836307,33.6237838 C158.174427,32.5135135 156.009439,31.9632432 154.357125,31.9637838 C151.879199,31.9637838 149.802377,32.5908108 148.108157,33.8405405 C146.420467,35.0886486 145.588324,36.74 145.585058,38.8437838 C145.585058,39.792973 145.836497,40.6518919 146.340464,41.4340541 C146.843886,42.2135135 147.580788,42.8772973 148.560421,43.4254054 C149.553115,43.9794595 150.698741,44.592973 151.997299,45.2643243 C153.30783,45.9448649 154.015342,46.6767568 154.021329,47.5102703 C154.024594,48.4383784 153.657232,49.1994595 152.940467,49.7427027 C152.227513,50.2859459 151.325706,50.5545946 150.253008,50.5535135 C148.587633,50.5535135 146.904841,49.7610811 145.206811,48.2064865 L142.631466,52.6064865 C144.89605,53.907027 147.205262,54.5545946 149.568898,54.5545946 C152.392417,54.5535135 154.696187,53.8610811 156.498711,52.4843243 C158.295793,51.1064865 159.186715,49.2459459 159.18998,46.8518919 C159.188891,45.887027 158.941806,45.0421622 158.446548,44.3037838 C157.946935,43.5610811 157.308541,42.9735135 156.525379,42.5372973 C155.726978,42.092973 154.578087,41.492973 153.079793,40.7389189 C151.570614,39.9772973 150.761329,39.1735135 150.75371,38.267027 C150.750444,37.5616216 151.102568,36.9783784 151.762187,36.5724324" id="Fill-15" fill="#00889E"></path>
                    <path d="M178.240571,47.9297297 C176.765679,49.6908108 174.778658,50.5767568 172.327943,50.5745946 L172.309439,50.5745946 C170.728421,50.5745946 169.617082,50.0113514 169.07012,48.8902703 L169.049983,48.847027 L171.07619,37.8751351 L171.100681,37.847027 C172.128207,36.6410811 173.377783,36.0243243 174.815122,36.0264865 C176.619823,36.0254054 178.002194,36.4978378 178.927947,37.46 C179.853699,38.4210811 180.303786,39.8513514 180.303786,41.7259459 C180.305419,44.1935135 179.617499,46.2686486 178.240571,47.9297297 L178.240571,47.9297297 Z M176.825546,31.9637838 C174.994721,31.9637838 173.455609,32.3702703 172.197326,33.1762162 L171.925205,33.3502703 L173.692354,23.3383784 L168.922631,23.3383784 L165.004644,45.2497297 C164.52789,47.8864865 163.645132,50.8497297 162.356915,54.1421622 L165.884681,54.1421622 L167.616454,52.4005405 L167.714962,52.5318919 C168.722351,53.8767568 170.283232,54.5518919 172.452574,54.5540541 C176.093543,54.552973 179.172311,53.2745946 181.7199,50.7059459 C184.265856,48.1351351 185.533937,45.0481081 185.535025,41.4172973 C185.533937,38.6275676 184.783973,36.3875676 183.288945,34.6740541 C181.71228,32.8664865 179.572327,31.9648649 176.825546,31.9637838 L176.825546,31.9637838 Z" id="Fill-16" fill="#00889E"></path>
                    <path d="M288.729536,54.3675676 C286.572167,62.3751351 282.171439,69.3291892 276.369836,74.8405405 L275.643275,75.8016216 C279.987947,72.5718919 283.506461,68.2940541 285.462461,63.7897297 C285.833088,62.8881081 286.189566,61.4497297 286.65979,60.6372973 C288.60817,56.5913514 289.561679,52.392973 290.00197,48.2524324 C289.638417,50.2021622 289.40385,52.2264865 288.776341,54.2021622 L288.729536,54.3675676 L288.729536,54.3675676 Z M275.087606,76.547027 L275.643275,75.8016216 L273.49026,77.6967568 C273.922932,77.4578378 274.689766,76.8459459 275.087606,76.547027 L275.087606,76.547027 Z M244.794641,78.6740541 L245.554945,78.7567568 L247.401008,78.5864865 L246.19606,78.552973 L244.794641,78.6740541 L244.794641,78.6740541 Z M268.67591,67.1756757 C269.397573,66.447027 270.095289,65.7481081 270.689599,64.947027 C267.836147,67.7027027 264.538594,69.9891892 260.918307,71.6762162 C255.036701,74.6751351 248.138454,75.8756757 241.240207,75.3335135 C240.461399,75.247027 239.646127,75.2962162 238.904871,75.0508108 C251.410972,78.6194595 265.790891,74.012973 271.967476,65.1005405 L272.343546,64.612973 C268.869115,68.1859459 264.718194,71.0691892 260.091606,72.9972973 C263.314053,71.5691892 266.213222,69.547027 268.67591,67.1756757 L268.67591,67.1756757 Z M275.856073,58.7735135 C277.210144,56.4118919 277.630297,54.0545946 277.959018,51.7010811 C277.557369,53.0021622 277.025102,54.2756757 276.47814,55.5524324 C274.952634,59.1291892 273.034187,62.1210811 270.689599,64.947027 C272.680431,63.1464865 274.291927,60.9708108 275.856073,58.7735135 L275.856073,58.7735135 Z M289.282484,47.4335135 L289.16384,48.1918919 C287.046745,49.2183784 288.336594,43.1383784 287.833716,36.8454054 C287.521322,30.5172973 284.734811,23.5962162 282.322738,22.5021622 C283.201142,20.0189189 288.069372,29.0902703 288.278361,32.8286486 C288.952674,37.2151351 289.663452,42.1221622 289.282484,47.4335135 L289.282484,47.4335135 Z M283.745927,42.5681081 C282.864801,40.2708108 282.572,34.5464865 281.039419,31.4535135 C280.656274,30.3994595 280.048357,29.4313514 279.48779,28.4751351 C277.118711,23.9221622 273.921299,19.9313514 269.780174,16.6443243 C268.122962,15.3335135 266.000968,14.0583784 264.049866,13.2940541 L262.197816,12.3691892 L262.260404,12.1194595 L264.513559,13.1908108 C265.202023,13.3913514 265.911169,13.6043243 266.194174,13.8237838 C267.534638,14.3697297 268.92626,15.4708108 270.331489,16.5713514 C271.519566,17.3837838 272.861663,18.7378378 274.002935,20.0940541 C274.221175,20.3740541 274.460641,20.5389189 274.573843,20.4567568 C275.83376,22.6227027 277.332053,23.4183784 278.335088,25.7972973 L278.086371,24.6897297 C278.890758,25.932973 279.651062,26.8086486 280.399937,28.5324324 C280.993703,29.9027027 281.713733,30.8702703 282.0381,31.9708108 C283.179917,35.6145946 283.606601,39.4340541 283.993556,42.5702703 C283.904845,42.5681081 283.867836,42.9594595 283.745927,42.5681081 L283.745927,42.5681081 Z M277.16606,68.3735135 C274.347439,72.5843243 269.593499,76.2583784 264.44172,78.6648649 L263.118127,79.3724324 C262.145569,79.8313514 261.28186,80.2140541 260.390394,80.3567568 L260.221679,80.3897297 C258.880127,80.5956757 257.607149,80.8221622 256.023953,80.9935135 L255.603255,81.1908108 L255.525973,80.7859459 C259.26817,79.16 264.11191,78.2416216 267.838868,75.7 C272.580835,72.472973 277.123065,68.1432432 279.563439,63.0967568 C279.937876,62.327027 280.830975,61.4016216 281.219018,60.6481081 C280.033663,63.3821622 278.94627,65.8183784 277.16606,68.3735135 L277.16606,68.3735135 Z M249.204077,5.85891892 C245.385686,6.11135135 241.395316,6.94648649 238.204978,7.75243243 L238.268654,7.45135135 C241.985816,6.09891892 246.125853,5.38918919 249.249249,5.68648649 L249.204077,5.85891892 L249.204077,5.85891892 Z M240.39609,5.7627027 L240.662224,6.02972973 L238.63003,6.97297297 C238.365529,6.20540541 239.96995,5.87891892 240.39609,5.7627027 L240.39609,5.7627027 Z M287.187159,25.8686486 C284.536708,19.0940541 279.943863,13.7383784 274.559693,9.88756757 C272.406678,8.25945946 270.211212,6.71567568 267.905265,5.33243243 L268.614955,5.43135135 C265.804497,3.57189189 262.700694,2.42918919 259.398244,1.51837838 L258.480654,1.3427027 C251.53778,0.0594594595 245.379155,-0.0481081081 238.476554,1.63891892 C236.793763,2.10324324 235.134374,2.62054054 233.538117,3.32486486 C232.388137,3.92 234.679389,3.91189189 232.758765,4.80972973 L233.1098,4.82054054 C234.532988,4.07783784 235.78202,3.29135135 236.320818,3.50432432 C237.023977,3.81891892 234.264678,5.11675676 232.788698,6.37513514 L232.703252,6.74918919 C232.703252,6.75027027 232.453446,6.83405405 232.17806,6.98918919 L232.062137,7.17459459 C232.208538,7.31459459 232.214524,7.52810811 232.180781,7.76486486 C232.781623,7.41027027 233.455392,7.21243243 234.091065,6.94810811 C233.667646,7.61351351 233.149529,8.02378378 232.33589,8.75405405 L232.346775,8.76648649 L232.277656,8.80108108 L231.73777,9.23567568 L231.739947,9.23837838 C236.136321,8.20486486 232.569369,10.6 232.062137,12.6286486 C232.396301,12.5064865 232.781078,12.3145946 233.187082,12.0518919 C233.250758,12.172973 233.377566,12.4183784 233.377566,12.4183784 C236.243536,11.2324324 238.435192,11.1735135 241.132447,11.1735135 C241.795876,11.1118919 241.919963,11.712973 242.868574,11.5481081 C245.40419,10.9978378 247.978447,11.22 250.535289,11.1762162 C255.996197,11.3 261.313426,12.8962162 265.797967,15.9935135 L265.812661,15.8935135 C266.948491,16.5724324 267.896558,17.4962162 268.949663,18.3335135 C269.869973,19.2778378 270.893689,19.6940541 271.762841,20.7232432 C277.52798,27.6551351 280.261699,36.692973 279.244514,45.6897297 C279.43772,46.4389189 279.393636,47.2145946 279.404521,48.06 L279.900868,46.3924324 C281.31426,52.5437838 275.869679,62.1281081 271.691546,66.6621622 C267.277212,72.2210811 259.596891,76.3589189 251.132865,77.0448649 C247.028748,77.9140541 241.536818,78.3740541 238.081436,77.2054054 C242.205145,77.7778378 245.040638,77.8805405 249.471299,77.1767568 C244.993833,77.4740541 241.738187,77.0135135 237.39025,75.56 C232.290174,74.5621622 227.959109,71.8821622 223.730905,68.8032432 C222.735489,68.0881081 221.829329,67.2686486 221.023853,66.9118919 C220.319062,66.7913514 219.661075,66.6005405 219.072751,66.412973 C220.161776,67.6762162 221.670411,68.5983784 222.814948,69.4951351 C222.640791,69.4075676 222.579836,69.5075676 222.527589,69.5659459 C224.169018,71.1875676 225.85181,71.68 227.762093,73.0632432 C224.517332,71.9189189 221.131613,69.3232432 218.340204,66.2302703 L217.588063,66.1075676 C223.088157,72.9686486 231.5979,77.6291892 240.126691,78.5362162 C241.690838,78.587027 242.977967,78.6610811 244.546467,78.6567568 C243.780721,78.5864865 243.267503,78.3859459 242.506654,78.2005405 C242.883269,78.2924324 244.340745,78.5097297 245.179963,78.492973 L246.19606,78.552973 C247.873953,78.4972973 251.373419,77.8318919 253.079068,77.5162162 C253.205332,77.4156757 252.801506,77.8178378 252.675242,77.8416216 C251.402808,78.0816216 248.728955,78.552973 247.401008,78.5864865 C252.110321,78.8291892 257.201145,78.0789189 261.379279,76.0594595 C263.554608,74.8956757 266.376494,73.3048649 268.497399,71.4302703 C268.497399,71.4302703 269.109125,70.9281081 269.81174,70.2718919 C271.905432,68.3162162 273.774898,65.9556757 275.513202,63.5372973 L275.930634,62.8897297 C276.423716,62.2513514 277.003876,61.4994595 277.003876,61.4994595 C277.003876,61.4994595 276.625629,62.6021622 275.994855,63.6297297 C274.23206,66.5016216 272.58791,68.6183784 269.73609,71.3502703 L269.307229,71.7513514 C267.995065,72.9545946 265.784905,74.0540541 263.648761,75.0162162 C264.090684,75.0886486 263.188334,75.4167568 263.05826,75.6464865 C257.478164,77.852973 251.890447,79.5027027 245.898361,78.8172973 L245.6159,78.7567568 C243.783442,78.9783784 242.568154,78.887027 240.688347,78.8189189 C238.838474,78.7518919 236.296871,78.0918919 235.186621,77.8410811 C228.333546,76.2935135 221.848377,71.6508108 216.834835,66.04 C216.378761,66.1291892 216.039155,66.3637838 215.889489,66.8540541 C221.046711,73.6983784 228.953436,77.8816216 236.99622,80.2805405 L237.198134,80.2983784 C240.861416,80.5237838 246.636351,81.3951351 251.019119,80.3524324 C255.282698,79.0410811 259.45811,78.0145946 263.057172,75.6486486 C263.043022,75.6751351 263.036491,75.7 263.046287,75.7232432 C260.938988,77.2054054 258.624334,78.4518919 256.586154,79.3632432 C253.226558,80.46 249.724915,80.7097297 246.57975,81.3005405 C245.664881,81.5724324 243.871065,81.4351351 242.528424,81.2664865 L240.661679,81.3254054 L242.636184,81.8059459 C243.039466,82.4345946 231.058558,80.1097297 231.335032,80.3264865 C231.226184,80.5697297 241.15204,83.5481081 248.39588,82.9724324 C249.827232,83.4005405 247.187666,84.9918919 246.157419,85.1064865 L245.800397,85.207027 L249.179042,85.3389189 C250.963606,85.3254054 252.698644,84.7497297 254.445656,84.4454054 C257.26591,83.947027 259.996364,83.0086486 262.640284,81.9113514 L260.561285,82.9632432 L259.519609,83.4589189 C256.671599,84.8005405 252.950083,85.2362162 249.179042,85.3389189 C247.163175,85.4432432 245.126083,85.7027027 243.111306,85.6410811 L242.956741,85.6448649 C245.499432,85.94 248.135733,85.9291892 250.701826,86.0254054 C255.340932,85.1632432 259.982758,84.1859459 264.24416,82.0459459 L262.172781,83.2151351 C259.185446,84.9762162 255.014932,85.6735135 250.701826,86.0254054 C246.228715,86.5297297 241.751793,86.5740541 237.340725,86.0810811 C240.284521,86.5410811 243.635409,87.3027027 246.596621,87.0410811 C258.425686,86.5708108 268.797275,82.107027 276.369836,74.8405405 C277.199259,73.8540541 277.851259,72.7286486 278.71388,71.8378378 C280.61219,69.6827027 282.718401,67.1 284.211252,64.6767568 C283.702387,64.9054054 284.536708,63.7621622 284.402825,63.68 C285.407492,61.0010811 287.076678,58.2421622 288.179853,55.1708108 C288.331696,54.7356757 288.461225,54.7821622 288.729536,54.3675676 C288.986417,49.812973 290.176671,44.2524324 289.972037,38.6048649 C289.96986,38.5464865 289.972037,38.6048649 289.972037,38.6048649 C290.256674,41.84 290.216401,45.0237838 290.00197,48.2524324 C290.877109,40.4259459 290.010678,32.9216216 287.187159,25.8686486 L287.187159,25.8686486 Z M241.570561,84.7335135 C239.337543,84.772973 237.948641,84.7189189 237.18616,84.6172973 C240.325339,83.6751351 234.304407,84.0545946 237.107245,84.632973 C236.743693,84.7140541 236.274013,84.8064865 235.64215,84.9027027 L236.028017,85.0216216 C238.33995,85.447027 240.759643,85.4351351 243.111306,85.6410811 C244.082775,85.6718919 245.027032,85.3810811 245.800397,85.207027 C244.372855,85.2086486 242.962728,84.9956757 241.570561,84.7335135 L241.570561,84.7335135 Z M279.404521,48.06 C278.849396,50.3794595 278.564758,52.4340541 278.116848,54.5075676 C278.928855,52.327027 279.412684,50.087027 279.404521,48.06 L279.404521,48.06 Z M279.117162,45.0913514 C278.507613,47.5605405 278.219165,49.6135135 277.959018,51.7010811 C278.572922,49.7151351 278.997973,47.7032432 279.244514,45.6897297 L279.117162,45.0913514 L279.117162,45.0913514 Z M275.916484,60.3010811 C277.178578,58.432973 277.72173,56.4459459 278.116848,54.5075676 C276.735022,58.4124324 274.256007,61.96 272.343546,64.612973 C273.600741,63.2464865 274.869366,61.8616216 275.916484,60.3010811 L275.916484,60.3010811 Z M226.55388,69.0394595 C224.731219,67.807027 223.591579,66.7859459 221.928925,65.4313514 C221.990968,65.3789189 222.057366,65.2843243 222.223359,65.3664865 C221.131613,64.5405405 220.093746,63.3232432 219.039553,62.1810811 L218.31027,61.9983784 C220.728331,65.0378378 223.58015,67.7918919 226.55388,69.0394595 L226.55388,69.0394595 Z M229.729523,11.1048649 C230.449553,10.3183784 230.929028,9.88594595 231.259382,9.17405405 C230.667793,9.50324324 230.036474,9.7627027 229.475362,10.1356757 C229.461756,10.5259459 229.396447,10.9486486 229.729523,11.1048649 L229.729523,11.1048649 Z M228.806491,14.8627027 C228.820097,15.2978378 229.30828,15.2497297 229.893883,14.9767568 C230.145866,12.8962162 233.41403,10.2816216 229.205963,11.6427027 C229.524888,12.0356757 230.019603,12.3102703 230.01797,12.9183784 C229.72408,13.112973 229.130314,13.507027 228.826083,13.7016216 C228.691656,14.1172973 229.152083,14.1475676 229.311002,14.3740541 C229.017656,14.5654054 228.723222,14.752973 228.806491,14.8627027 L228.806491,14.8627027 Z" id="Fill-17" fill="#6CB744"></path>
                </g>
            </g>
        </g>
    </g>
</svg>