<?xml version="1.0" encoding="UTF-8" standalone="no"?>
<svg
   xmlns:dc="http://purl.org/dc/elements/1.1/"
   xmlns:cc="http://creativecommons.org/ns#"
   xmlns:rdf="http://www.w3.org/1999/02/22-rdf-syntax-ns#"
   xmlns:svg="http://www.w3.org/2000/svg"
   xmlns="http://www.w3.org/2000/svg"
   xmlns:sodipodi="http://sodipodi.sourceforge.net/DTD/sodipodi-0.dtd"
   xmlns:inkscape="http://www.inkscape.org/namespaces/inkscape"
   xml:space="preserve"
   version="1.1"
   style="image-rendering:optimizeQuality;shape-rendering:geometricPrecision;text-rendering:geometricPrecision"
   viewBox="0 0 1052.95 307.85485"
   x="0px"
   y="0px"
   fill-rule="evenodd"
   clip-rule="evenodd"
   id="svg845"
   width="1052.95"
   height="307.85486"
   sodipodi:docname="double-arrow.svg"
   inkscape:export-filename="/Users/xivk/double-arrow-8.png"
   inkscape:export-xdpi="2.4946821"
   inkscape:export-ydpi="2.4946821"
   inkscape:version="1.0.2 (e86c8708, 2021-01-15)"><sodipodi:namedview
     pagecolor="#ffffff"
     bordercolor="#666666"
     borderopacity="1"
     objecttolerance="10"
     gridtolerance="10"
     guidetolerance="10"
     inkscape:pageopacity="0"
     inkscape:pageshadow="2"
     inkscape:window-width="1920"
     inkscape:window-height="1062"
     id="namedview840"
     showgrid="false"
     fit-margin-top="0"
     fit-margin-left="0"
     fit-margin-right="0"
     fit-margin-bottom="0"
     inkscape:zoom="0.78446458"
     inkscape:cx="453.81309"
     inkscape:cy="154.01497"
     inkscape:window-x="0"
     inkscape:window-y="25"
     inkscape:window-maximized="1"
     inkscape:current-layer="g839" /><metadata
     id="metadata849"><rdf:RDF><cc:Work
         rdf:about=""><dc:format>image/svg+xml</dc:format><dc:type
           rdf:resource="http://purl.org/dc/dcmitype/StillImage" /><dc:title></dc:title></cc:Work></rdf:RDF></metadata><defs
     id="defs835"><style
       type="text/css"
       id="style833">
   
    .fil0 {fill:black}
   
  </style></defs><g
     id="g839"
     transform="translate(-60.368387,-269.18356)"><path
       id="path837"
       d="m 916.80624,269.19481 c 4.35791,0.16113 9.63086,2.05469 15.88086,5.80469 l 175,129 c 8,8 7,16 0,23 l -175,144 c -20,12 -31,7 -32,-23 v -85 H 586.84335 v -98 H 900.6871 v -73 c 1.375,-15.125 6.53174,-23.15918 16.11914,-22.80469 z"
       style="fill:#555555;fill-opacity:1" /><path
       id="path837-8"
       d="m 256.88049,269.19481 c -4.35791,0.16113 -9.63086,2.05469 -15.88086,5.80469 l -175.000007,129 c -8,8 -7,16 0,23 l 175.000007,144 c 20,12 31,7 32,-23 v -85 h 313.84372 v -98 H 272.99963 v -73 c -1.375,-15.125 -6.53174,-23.15918 -16.11914,-22.80469 z"
       style="fill:#00ae00;fill-opacity:1;image-rendering:optimizeQuality;shape-rendering:geometricPrecision;text-rendering:geometricPrecision" /></g></svg>
