<?xml version="1.0" encoding="UTF-8" standalone="no"?>
<svg
   xmlns:dc="http://purl.org/dc/elements/1.1/"
   xmlns:cc="http://creativecommons.org/ns#"
   xmlns:rdf="http://www.w3.org/1999/02/22-rdf-syntax-ns#"
   xmlns:svg="http://www.w3.org/2000/svg"
   xmlns="http://www.w3.org/2000/svg"
   data-name="Layer 1"
   viewBox="0 0 22 22"
   x="0px"
   y="0px"
   version="1.1"
   id="svg841"
   width="22"
   height="22">
  <metadata
     id="metadata847">
    <rdf:RDF>
      <cc:Work
         rdf:about="">
        <dc:format>image/svg+xml</dc:format>
        <dc:type
           rdf:resource="http://purl.org/dc/dcmitype/StillImage" />
        <dc:title>26-ask</dc:title>
      </cc:Work>
    </rdf:RDF>
  </metadata>
  <defs
     id="defs845" />
  <title
     id="title833">26-ask</title>
  <path
     d="M 11,0 A 11,11 0 1 0 22,11 11.013,11.013 0 0 0 11,0 Z m 0,18 a 1,1 0 1 1 1,-1 1,1 0 0 1 -1,1 z m 2.34,-6.756 A 2.988,2.988 0 0 0 12,13.623 V 14 a 1,1 0 0 1 -2,0 v -0.377 a 4.957,4.957 0 0 1 2.169,-4 2,2 0 0 0 -0.8,-3.59 A 2,2 0 0 0 9,8 1,1 0 0 1 7,8 a 4,4 0 1 1 6.34,3.244 z"
     id="path835" />
</svg>
