<?xml version="1.0" encoding="UTF-8" standalone="no"?>
<svg
   xmlns:dc="http://purl.org/dc/elements/1.1/"
   xmlns:cc="http://creativecommons.org/ns#"
   xmlns:rdf="http://www.w3.org/1999/02/22-rdf-syntax-ns#"
   xmlns:svg="http://www.w3.org/2000/svg"
   xmlns="http://www.w3.org/2000/svg"
   version="1.1"
   x="0px"
   y="0px"
   viewBox="0 0 80.000641 80"
   xml:space="preserve"
   id="svg861"
   width="80.000641"
   height="80"><metadata
     id="metadata867"><rdf:RDF><cc:Work
         rdf:about=""><dc:format>image/svg+xml</dc:format><dc:type
           rdf:resource="http://purl.org/dc/dcmitype/StillImage" /><dc:title></dc:title></cc:Work></rdf:RDF></metadata><defs
     id="defs865" /><style
     type="text/css"
     id="style833">
	.st0{fill:none;stroke:#000000;stroke-width:2;stroke-linecap:round;stroke-linejoin:round;stroke-miterlimit:10;}
</style><path
     d="m 25.925643,37.99 c -2.045,0 -3.709,1.664 -3.709,3.709 v 3.673 c 0,0.553 0.447,1 1,1 h 5.418 c 0.553,0 1,-0.447 1,-1 v -3.673 c 0,-2.045 -1.664,-3.709 -3.709,-3.709 z m 1.709,6.382 h -3.418 v -2.673 c 0,-0.942 0.767,-1.709 1.709,-1.709 0.942,0 1.709,0.767 1.709,1.709 z"
     id="path835" /><path
     d="m 13.480643,37.99 c -2.045,0 -3.7089997,1.664 -3.7089997,3.709 v 3.673 c 0,0.553 0.4469997,1 0.9999997,1 h 5.418 c 0.553,0 1,-0.447 1,-1 v -3.673 c 0,-2.045 -1.664,-3.709 -3.709,-3.709 z m 1.709,6.382 h -3.418 v -2.673 c 0,-0.942 0.767,-1.709 1.709,-1.709 0.942,0 1.709,0.767 1.709,1.709 z"
     id="path837" /><path
     d="m 23.216643,28.917 h 5.418 c 0.553,0 1,-0.447 1,-1 v -3.673 c 0,-2.045 -1.664,-3.709 -3.709,-3.709 -2.045,0 -3.709,1.664 -3.709,3.709 v 3.673 c 0,0.553 0.447,1 1,1 z m 1,-4.673 c 0,-0.942 0.767,-1.709 1.709,-1.709 0.942,0 1.709,0.767 1.709,1.709 v 2.673 h -3.418 z"
     id="path839" /><path
     d="m 10.771643,28.917 h 5.418 c 0.553,0 1,-0.447 1,-1 v -3.673 c 0,-2.045 -1.664,-3.709 -3.709,-3.709 -2.045,0 -3.7089997,1.664 -3.7089997,3.709 v 3.673 c 0,0.553 0.4479997,1 0.9999997,1 z m 1,-4.673 c 0,-0.942 0.767,-1.709 1.709,-1.709 0.942,0 1.709,0.767 1.709,1.709 v 2.673 h -3.418 z"
     id="path841" /><path
     d="M 1.0006433,80 H 79.000643 c 0.553,0 1,-0.447 1,-1 0,-0.553 -0.447,-1 -1,-1 h -0.429 V 14.682 h 0.429 c 0.553,0 1,-0.447 1,-1 V 7.625 c 0,-0.553 -0.447,-1 -1,-1 h -14.5 V 1 c 0,-0.553 -0.447,-1 -1,-1 h -4.525 c -0.553,0 -1,0.447 -1,1 v 5.625 h -3.917 V 1 c 0,-0.553 -0.447,-1 -1,-1 h -4.525 c -0.553,0 -1,0.447 -1,1 v 5.625 h -3.033 c -0.553,0 -1,0.447 -1,1 v 6.057 c 0,0.553 0.447,1 1,1 h 0.509 v 39.003 c -2.171,0.435 -3.806,2.253 -3.806,4.427 0,0.446 0.069,0.885 0.207,1.31 -0.609,0.854 -0.939,1.862 -0.939,2.899 0,0.558 0.094,1.103 0.279,1.627 -0.701,0.979 -1.081,2.137 -1.081,3.324 0,2.968 2.329,5.428 5.359,5.873 l 0.011,4.856 h -7.235 V 58.848 h 0.612 c 0.301,0 0.585,-0.135 0.775,-0.368 0.189,-0.233 0.265,-0.539 0.204,-0.833 l -1.592,-7.739 V 9.465 c 0,-0.02 -0.005,-0.039 -0.006,-0.058 0,-0.011 0.006,-0.02 0.006,-0.031 0,-0.037 -0.017,-0.069 -0.021,-0.105 -10e-4,-0.007 -10e-4,-0.014 -0.002,-0.021 l -0.022,-0.102 c -0.013,-0.056 -0.015,-0.117 -0.037,-0.169 l -1.291,-5.848 c -0.102,-0.458 -0.508,-0.784 -0.977,-0.784 h -3.615 V 1 c 0,-0.553 -0.447,-1 -1,-1 h -4.411 c -0.553,0 -1,0.447 -1,1 v 1.347 h -11.601 V 1 c 0,-0.553 -0.447,-1 -1,-1 H 8.4156433 c -0.553,0 -1,0.447 -1,1 v 1.347 h -3.464 c -0.469,0 -0.875,0.326 -0.977,0.784 l -1.291,5.848 c -0.022,0.052 -0.023,0.111 -0.037,0.167 l -0.023,0.103 c -0.002,0.007 -10e-4,0.014 -0.002,0.021 -0.004,0.036 -0.021,0.068 -0.021,0.105 0,0.011 0.006,0.02 0.006,0.031 -10e-4,0.02 -0.006,0.039 -0.006,0.058 v 40.505 l -1.57999998,7.677 c -0.061,0.294 0.015,0.6 0.204,0.833 0.19,0.233 0.475,0.368 0.775,0.368 H 1.5936433 v 19.152 h -0.593 c -0.55299998,0 -0.99999998047,0.447 -0.99999998047,1 0,0.553 0.44700000047,1.001 0.99999998047,1.001 z M 35.805643,10.375 V 14.75 H 3.6016433 v -4.375 z m -23.136,46.473 v -5.791 h 3.355 v 5.791 z M 3.6016433,49.057 V 34.375 H 35.805643 V 49.057 Z M 35.805643,32.375 H 3.6016433 V 16.75 H 35.805643 Z m -17.781,18.682 h 3.356 v 5.791 h -3.356 z m 5.357,0 h 3.355 v 5.791 h -3.355 z m 5.355,0 h 3.356 v 5.791 h -3.356 z m 5.357,0 h 1.906 l 1.191,5.791 h -3.098 v -5.791 z m -31.8659997,5.791 1.192,-5.791 h 1.894 v 5.791 z m 5.085,-5.791 h 3.3559997 v 5.791 H 7.3126433 Z M 65.119643,78 h -6.658 V 65.829 c 0,-1.836 1.493,-3.329 3.329,-3.329 1.836,0 3.329,1.493 3.329,3.329 z m -5.144,-76 h 2.525 v 4.625 h -2.525 z m -10.443,0 h 2.525 v 4.625 h -2.525 z m -4.032,6.625 h 32.5 v 4.057 h -32.5 z m -3.831,58.646 c 0,-0.92 0.339,-1.784 0.979,-2.498 0.276,-0.308 0.334,-0.753 0.147,-1.121 -0.216,-0.425 -0.325,-0.873 -0.325,-1.332 0,-0.747 0.292,-1.476 0.822,-2.051 0.281,-0.305 0.345,-0.752 0.16,-1.123 -0.166,-0.333 -0.25,-0.682 -0.25,-1.035 0,-1.395 1.259,-2.528 2.806,-2.528 1.499,0 2.73,1.057 2.802,2.401 l 0.004,0.127 c 0,0.355 -0.084,0.703 -0.249,1.033 -0.186,0.372 -0.122,0.819 0.159,1.125 0.53,0.575 0.822,1.304 0.822,2.051 0,0.459 -0.109,0.907 -0.325,1.332 -0.188,0.369 -0.128,0.816 0.15,1.124 0.096,0.106 0.185,0.219 0.267,0.33 0.464,0.645 0.71,1.393 0.71,2.165 0,2.179 -1.947,3.951 -4.34,3.951 -2.393,0 -4.339,-1.772 -4.339,-3.951 z m 5.359,5.867 c 3.012,-0.46 5.32,-2.912 5.32,-5.867 0,-1.189 -0.373,-2.338 -1.081,-3.325 0.186,-0.524 0.279,-1.068 0.279,-1.626 0,-1.037 -0.33,-2.046 -0.939,-2.898 0.138,-0.425 0.207,-0.863 0.207,-1.311 0,-0.076 -0.002,-0.151 -0.006,-0.23 -0.112,-2.087 -1.71,-3.777 -3.8,-4.194 V 14.682 h 29.562 V 78 h -9.452 V 65.829 c 0,-2.938 -2.391,-5.329 -5.329,-5.329 -2.938,0 -5.329,2.391 -5.329,5.329 V 78 h -9.42 z M 13.539643,78 v -7.159 h 22.266 V 78 Z m 22.266,-9.159 h -22.266 v -9.993 h 22.266 z M 27.428643,2 h 2.411 v 3.598 h -2.411 z M 9.4156433,2 H 11.826643 V 5.598 H 9.4156433 Z m -4.66,2.347 h 2.66 v 2.251 c 0,0.553 0.447,1 1,1 h 4.4109997 c 0.553,0 1,-0.447 1,-1 V 4.347 h 11.602 v 2.251 c 0,0.553 0.447,1 1,1 h 4.411 c 0.553,0 1,-0.447 1,-1 V 4.347 h 2.812 l 0.89,4.028 H 3.8656433 Z m -1.161,54.501 H 11.539643 V 78 H 3.5946433 Z"
     id="path843" /><path
     d="m 54.254643,28.917 h 5.418 c 0.553,0 1,-0.447 1,-1 v -3.673 c 0,-2.045 -1.664,-3.709 -3.709,-3.709 -2.045,0 -3.709,1.664 -3.709,3.709 v 3.673 c 0,0.553 0.447,1 1,1 z m 1,-4.673 c 0,-0.942 0.767,-1.709 1.709,-1.709 0.942,0 1.709,0.767 1.709,1.709 v 2.673 h -3.418 z"
     id="path845" /><path
     d="m 65.004643,28.917 h 5.418 c 0.553,0 1,-0.447 1,-1 v -3.673 c 0,-2.045 -1.664,-3.709 -3.709,-3.709 -2.045,0 -3.709,1.664 -3.709,3.709 v 3.673 c 0,0.553 0.447,1 1,1 z m 1,-4.673 c 0,-0.942 0.767,-1.709 1.709,-1.709 0.942,0 1.709,0.767 1.709,1.709 v 2.673 h -3.418 z"
     id="path847" /><path
     d="m 54.206643,42.215 h 5.418 c 0.553,0 1,-0.447 1,-1 v -3.673 c 0,-2.045 -1.664,-3.709 -3.709,-3.709 -2.045,0 -3.709,1.664 -3.709,3.709 v 3.673 c 0,0.553 0.447,1 1,1 z m 1,-4.673 c 0,-0.942 0.767,-1.709 1.709,-1.709 0.942,0 1.709,0.767 1.709,1.709 v 2.673 h -3.418 z"
     id="path849" /><path
     d="m 64.956643,42.215 h 5.418 c 0.553,0 1,-0.447 1,-1 v -3.673 c 0,-2.045 -1.664,-3.709 -3.709,-3.709 -2.045,0 -3.709,1.664 -3.709,3.709 v 3.673 c 0,0.553 0.447,1 1,1 z m 1,-4.673 c 0,-0.942 0.767,-1.709 1.709,-1.709 0.942,0 1.709,0.767 1.709,1.709 v 2.673 h -3.418 z"
     id="path851" /><path
     d="m 59.624643,55.465 c 0.553,0 1,-0.447 1,-1 v -3.673 c 0,-2.045 -1.664,-3.709 -3.709,-3.709 -2.045,0 -3.709,1.664 -3.709,3.709 v 3.673 c 0,0.553 0.447,1 1,1 z m -4.418,-4.673 c 0,-0.942 0.767,-1.709 1.709,-1.709 0.942,0 1.709,0.767 1.709,1.709 v 2.673 h -3.418 z"
     id="path853" /><path
     d="m 64.956643,55.465 h 5.418 c 0.553,0 1,-0.447 1,-1 v -3.673 c 0,-2.045 -1.664,-3.709 -3.709,-3.709 -2.045,0 -3.709,1.664 -3.709,3.709 v 3.673 c 0,0.553 0.447,1 1,1 z m 1,-4.673 c 0,-0.942 0.767,-1.709 1.709,-1.709 0.942,0 1.709,0.767 1.709,1.709 v 2.673 h -3.418 z"
     id="path855" /></svg>
