<?xml version="1.0" encoding="UTF-8" standalone="no"?>
<svg
   xmlns:dc="http://purl.org/dc/elements/1.1/"
   xmlns:cc="http://creativecommons.org/ns#"
   xmlns:rdf="http://www.w3.org/1999/02/22-rdf-syntax-ns#"
   xmlns:svg="http://www.w3.org/2000/svg"
   xmlns="http://www.w3.org/2000/svg"
   data-name="Calque 1"
   viewBox="0 0 47.056992 43.207001"
   x="0px"
   y="0px"
   version="1.1"
   id="svg839"
   width="47.056992"
   height="43.207001">
  <metadata
     id="metadata845">
    <rdf:RDF>
      <cc:Work
         rdf:about="">
        <dc:format>image/svg+xml</dc:format>
        <dc:type
           rdf:resource="http://purl.org/dc/dcmitype/StillImage" />
        <dc:title></dc:title>
      </cc:Work>
    </rdf:RDF>
  </metadata>
  <defs
     id="defs843" />
  <path
     d="m 26.330702,1.0487989 a 4.26922,4.26922 0 0 0 -5.6054,0 l -3.86528,3.3301 v -1.6035 a 0.99935,0.99935 0 0 0 -1,-1 h -5.77342 a 0.9994,0.9994 0 0 0 -1.0000004,1 v 8.3006001 l -7.7861,6.7082 a 3.7433516,3.7433516 0 1 0 4.8857,5.6728 l 0.5352,-0.461 v 19.211 a 0.9994,0.9994 0 0 0 1,1 H 39.272102 a 0.9994,0.9994 0 0 0 1,-1 v -19.2649 l 0.5977,0.5149 a 3.714,3.714 0 0 0 2.4375,0.9072 c 0.09372,0 0.1885,-0.0029 0.2842,-0.0097 a 3.74337,3.74337 0 0 0 2.164,-6.5703 z m -15.2441,2.7266 h 3.77342 v 2.3266 l -3.77342,3.2509 z m 21.8486,37.4316001 h -6.6133 v -14.377 h 6.6133 z m 5.3369,0 h -3.3369 v -15.377 a 0.99939,0.99939 0 0 0 -1,-1 h -8.6133 a 0.99947,0.99947 0 0 0 -1,1 v 15.377 H 8.7214016 v -19.934 L 23.528022,8.5174989 38.272102,21.219199 Z m 6.3614,-19.4482 a 1.7297,1.7297 0 0 1 -1.1914,0.6005 1.69627,1.69627 0 0 1 -1.2676,-0.4179 L 24.180302,6.4393989 a 1.00122,1.00122 0 0 0 -1.3046,0 L 4.8815016,21.941399 a 1.69217,1.69217 0 0 1 -1.2676,0.4179 1.74356,1.74356 0 0 1 -1.0088,-3.0595 L 22.030022,2.5643989 a 2.2805,2.2805 0 0 1 2.996,0 l 19.42488,16.7354001 a 1.74369,1.74369 0 0 1 0.1826,2.459 z m -23.4297,3.0712 h -8.1455 a 0.9994,0.9994 0 0 0 -1,1 v 7.6739 a 0.9994,0.9994 0 0 0 1,1 h 8.1455 a 0.99947,0.99947 0 0 0 1,-1 v -7.6739 a 0.99947,0.99947 0 0 0 -1,-1 z m -1,7.6739 h -6.1455 v -5.6739 h 6.1455 z"
     id="path833" />
</svg>
