<?xml version="1.0" encoding="UTF-8" standalone="no"?>
<svg
   xmlns:dc="http://purl.org/dc/elements/1.1/"
   xmlns:cc="http://creativecommons.org/ns#"
   xmlns:rdf="http://www.w3.org/1999/02/22-rdf-syntax-ns#"
   xmlns:svg="http://www.w3.org/2000/svg"
   xmlns="http://www.w3.org/2000/svg"
   xml:space="preserve"
   version="1.1"
   style="image-rendering:optimizeQuality;shape-rendering:geometricPrecision;text-rendering:geometricPrecision"
   viewBox="0 0 288 317"
   x="0px"
   y="0px"
   fill-rule="evenodd"
   clip-rule="evenodd"
   id="svg845"
   width="288"
   height="317"><metadata
     id="metadata849"><rdf:RDF><cc:Work
         rdf:about=""><dc:format>image/svg+xml</dc:format><dc:type
           rdf:resource="http://purl.org/dc/dcmitype/StillImage" /><dc:title></dc:title></cc:Work></rdf:RDF></metadata><defs
     id="defs835"><style
       type="text/css"
       id="style833">
   
    .fil0 {fill:black}
   
  </style></defs><g
     id="g839"
     transform="translate(-23,-8)"><path
       class="fil0"
       d="m 255,214 c 31,0 56,25 56,56 0,30 -25,55 -56,55 -30,0 -55,-25 -55,-55 0,-2 0,-3 0,-5 l -89,-51 c -9,6 -21,10 -33,10 -30,0 -55,-24 -55,-55 0,-30 25,-55 55,-55 12,0 23,4 32,10 l 91,-52 c -1,-3 -1,-6 -1,-8 0,-31 25,-56 55,-56 31,0 56,25 56,56 0,30 -25,55 -56,55 -15,0 -28,-6 -38,-16 l -86,49 c 3,11 3,22 0,33 l 83,48 c 10,-11 25,-19 41,-19 z"
       id="path837" /></g></svg>
