<?xml version="1.0" encoding="UTF-8" standalone="no"?>
<svg
   xmlns:dc="http://purl.org/dc/elements/1.1/"
   xmlns:cc="http://creativecommons.org/ns#"
   xmlns:rdf="http://www.w3.org/1999/02/22-rdf-syntax-ns#"
   xmlns:svg="http://www.w3.org/2000/svg"
   xmlns="http://www.w3.org/2000/svg"
   viewBox="0 0 33.975021 29.959999"
   x="0px"
   y="0px"
   version="1.1"
   id="svg851"
   width="33.975021"
   height="29.959999">
  <metadata
     id="metadata857">
    <rdf:RDF>
      <cc:Work
         rdf:about="">
        <dc:format>image/svg+xml</dc:format>
        <dc:type
           rdf:resource="http://purl.org/dc/dcmitype/StillImage" />
        <dc:title>expand-travel</dc:title>
      </cc:Work>
    </rdf:RDF>
  </metadata>
  <defs
     id="defs855" />
  <title
     id="title833">expand-travel</title>
  <g
     id="g845"
     transform="translate(-7.02,-9)">
    <path
       d="m 30.07,16.82 a 17,17 0 0 0 4.1,-6.15 L 34.52,9.74 32.68,9 32.33,9.93 a 15.18,15.18 0 0 1 -3.66,5.46 C 25,19.08 22,19.6 18.72,20.16 c -3.41,0.58 -6.93,1.18 -11,5.27 l -0.7,0.7 1.4,1.4 0.7,-0.7 c 3.65,-3.65 6.71,-4.17 10,-4.73 3.33,-0.58 6.88,-1.18 10.95,-5.28 z"
       id="path835" />
    <path
       d="m 40.52,10.09 -0.22,-1 -1.92,0.45 0.22,1 a 14.54,14.54 0 0 1 -0.53,8.63 c -1.68,4.88 -4.19,6.69 -6.86,8.62 -2.67,1.93 -5.69,4.11 -7.57,9.59 l -0.32,0.93 1.87,0.65 0.32,-0.94 c 1.68,-4.89 4.2,-6.71 6.86,-8.63 2.66,-1.92 5.69,-4.11 7.56,-9.58 a 16.36,16.36 0 0 0 0.59,-9.72 z"
       id="path837" />
    <path
       d="m 36.34,16.24 0.28,-0.95 a 15.64,15.64 0 0 0 0.6,-4.16 v -1 h -2 v 1 a 13.44,13.44 0 0 1 -0.52,3.64 l -0.27,0.95 z"
       id="path839" />
    <path
       d="m 24.94,25 -0.91,0.37 0.73,1.84 0.92,-0.37 a 16.87,16.87 0 0 0 6.86,-4.45 l 0.66,-0.73 -1.46,-1.33 -0.66,0.73 A 14.89,14.89 0 0 1 24.94,25 Z"
       id="path841" />
    <path
       d="m 17.88,29.07 a 18.21,18.21 0 0 0 -2.64,3.24 l -0.54,0.82 1.66,1.08 0.54,-0.83 a 16.13,16.13 0 0 1 2.35,-2.88 l 0.71,-0.69 -1.37,-1.42 z"
       id="path843" />
  </g>
</svg>
