<?xml version="1.0" encoding="UTF-8" standalone="no"?>
<svg
   xmlns:dc="http://purl.org/dc/elements/1.1/"
   xmlns:cc="http://creativecommons.org/ns#"
   xmlns:rdf="http://www.w3.org/1999/02/22-rdf-syntax-ns#"
   xmlns:svg="http://www.w3.org/2000/svg"
   xmlns="http://www.w3.org/2000/svg"
   data-name="Layer 1"
   viewBox="0 0 100 100"
   x="0px"
   y="0px"
   version="1.1"
   id="svg871"
   width="100"
   height="100">
  <metadata
     id="metadata877">
    <rdf:RDF>
      <cc:Work
         rdf:about="">
        <dc:format>image/svg+xml</dc:format>
        <dc:type
           rdf:resource="http://purl.org/dc/dcmitype/StillImage" />
        <dc:title>all</dc:title>
      </cc:Work>
    </rdf:RDF>
  </metadata>
  <defs
     id="defs875" />
  <title
     id="title833">all</title>
  <g
     id="g865">
    <g
       id="g863">
      <g
         data-name="Zoom In"
         id="g861">
        <g
           data-name="Calendar"
           id="g859">
          <g
             id="g857">
            <g
               id="g855">
              <g
                 id="g853">
                <g
                   id="g851">
                  <g
                     id="g849">
                    <g
                       id="g847">
                      <g
                         id="g845">
                        <g
                           id="g843">
                          <g
                             data-name="Play - Orange"
                             id="g841">
                            <g
                               data-name="Arrow Right - Orange"
                               id="g839">
                              <g
                                 id="g837">
                                <path fill="#c2c2c2"
                                   d="m 86.29,37.3 -1.7,-4.12 c 5.83,-13.45 5.45,-13.85 4.31,-15 l -7.45,-7.43 -0.74,-0.64 h -0.86 c -0.46,0 -1.81,0 -13.14,5.24 L 62.54,13.63 C 57.15,0 56.6,0 55,0 H 44.51 c -1.58,0 -2.19,0 -7.18,13.68 l -4.15,1.72 c -7.65,-3.3 -12.14,-5 -13.35,-5 h -1 l -8,8 c -1.23,1.25 -1.66,1.66 4.51,14.9 l -1.7,4.11 C 0,42.79 0,43.31 0,45 v 10.48 c 0,1.65 0,2.23 13.69,7.24 l 1.7,4.1 c -5.83,13.45 -5.44,13.85 -4.31,15 l 7.45,7.44 0.74,0.65 h 0.87 c 0.45,0 1.79,0 13.13,-5.25 l 4.16,1.73 C 42.82,100 43.37,100 45,100 h 10.47 c 1.61,0 2.18,0 7.19,-13.67 l 4.17,-1.72 c 7.65,3.3 12.12,5 13.33,5 h 1 l 8.08,-8.07 c 1.15,-1.18 1.55,-1.59 -4.58,-14.78 l 1.69,-4.11 C 100,57.21 100,56.64 100,55 V 44.52 c 0,-1.65 0,-2.23 -13.71,-7.22 z M 50,67.49 A 17.5,17.5 0 1 1 67.46,50 17.52,17.52 0 0 1 50,67.49 Z"
                                   id="path835" />
                              </g>
                            </g>
                          </g>
                        </g>
                      </g>
                    </g>
                  </g>
                </g>
              </g>
            </g>
          </g>
        </g>
      </g>
    </g>
  </g>
</svg>
