<?xml version="1.0" encoding="UTF-8" standalone="no"?>
<svg
   xmlns:dc="http://purl.org/dc/elements/1.1/"
   xmlns:cc="http://creativecommons.org/ns#"
   xmlns:rdf="http://www.w3.org/1999/02/22-rdf-syntax-ns#"
   xmlns:svg="http://www.w3.org/2000/svg"
   xmlns="http://www.w3.org/2000/svg"
   version="1.1"
   viewBox="0 0 96 96"
   x="0px"
   y="0px"
   id="svg843"
   width="96"
   height="96">
  <metadata
     id="metadata849">
    <rdf:RDF>
      <cc:Work
         rdf:about="">
        <dc:format>image/svg+xml</dc:format>
        <dc:type
           rdf:resource="http://purl.org/dc/dcmitype/StillImage" />
        <dc:title></dc:title>
      </cc:Work>
    </rdf:RDF>
  </metadata>
  <defs
     id="defs847" />
  <path
     d="M 86,96 H 10 C 8.896,96 8,95.1 8,94 V 40 c 0,-1.1 0.896,-2 2,-2 1.104,0 2,0.9 2,2 V 92 H 84 V 40 c 0,-1.1 0.9,-2 2,-2 1.1,0 2,0.9 2,2 v 54 c 0,1.1 -0.9,2 -2,2 z"
     fill="#000000"
     id="path833" />
  <path
     d="m 66,94 c -1.1,0 -2,-0.9 -2,-2 V 60 H 32 v 32 c 0,1.1 -0.896,2 -2,2 -1.104,0 -2,-0.9 -2,-2 V 58 c 0,-1.1 0.896,-2 2,-2 h 36 c 1.1,0 2,0.9 2,2 v 34 c 0,1.1 -0.9,2 -2,2 z"
     fill="#000000"
     id="path835" />
  <path
     d="M 87,42 C 83.916,42 81.368,40.6 79.78,38.272 77.944,40.548 75.14,42 72,42 68.736,42 65.828,40.42 64,37.992 62.172,40.42 59.264,42 56,42 52.736,42 49.828,40.42 48,37.992 46.172,40.42 43.268,42 40,42 36.732,42 33.828,40.42 32,37.992 30.172,40.42 27.268,42 24,42 20.732,42 17.828,40.42 16,37.992 14.172,40.42 11.268,42 8,42 3.588,42 0,37.516 0,32 v -2 c 0,-0.228 0.04,-0.452 0.112,-0.664 l 9.876,-28 C 10.272,0.536 11.028,0 11.876,0 H 84 c 0.844,0 1.6,0.532 1.884,1.328 l 10,28 C 95.964,29.544 96,29.768 96,30 v 2 c 0,5.888 -3.7,10 -9,10 z M 82,32 c 0,2.764 1.308,6 5,6 3.692,0 5,-3.236 5,-6 V 30.348 L 82.584,4 H 13.288 L 3.996,30.344 V 32 c 0,3.252 1.832,6 4,6 3.308,0 6,-2.692 6,-6 0,-1.1 0.896,-2 2,-2 1.104,0 2,0.9 2,2 0,3.308 2.692,6 6,6 3.308,0 6,-2.692 6,-6 0,-1.1 0.896,-2 2,-2 1.104,0 2,0.9 2,2 0,3.308 2.692,6 6,6 3.308,0 6,-2.692 6,-6 0,-1.1 0.896,-2 2,-2 1.104,0 2,0.9 2,2 0,3.308 2.692,6 6,6 3.308,0 6,-2.692 6,-6 0,-1.1 0.896,-2 2,-2 1.104,0 2,0.9 2,2 0,3.308 2.692,6 6,6 3.308,0 6,-2.692 6,-6 0,-1.1 0.896,-2 2,-2 C 81.1,30 82,30.9 82,32 Z"
     fill="#000000"
     id="path837" />
</svg>
