<?xml version="1.0" encoding="UTF-8" standalone="no"?>
<svg
   xmlns:dc="http://purl.org/dc/elements/1.1/"
   xmlns:cc="http://creativecommons.org/ns#"
   xmlns:rdf="http://www.w3.org/1999/02/22-rdf-syntax-ns#"
   xmlns:svg="http://www.w3.org/2000/svg"
   xmlns="http://www.w3.org/2000/svg"
   id="svg20"
   xml:space="preserve"
   enable-background="new 0 0 100 100"
   viewBox="0 0 110 98"
   y="0px"
   x="0px"
   version="1.1"><metadata
     id="metadata26"><rdf:RDF><cc:Work
         rdf:about=""><dc:format>image/svg+xml</dc:format><dc:type
           rdf:resource="http://purl.org/dc/dcmitype/StillImage" /><dc:title></dc:title></cc:Work></rdf:RDF></metadata><defs
     id="defs24" /><g
     transform="translate(5,-1)"
     id="g14"><g
       id="g4"><path
         id="path2"
         d="m 75.8,42.131 -3,4 c -0.497,0.663 -0.362,1.604 0.3,2.101 0.663,0.497 1.604,0.362 2.101,-0.3 l 3,-4 c 0.497,-0.663 0.362,-1.604 -0.3,-2.101 -0.662,-0.497 -1.604,-0.362 -2.101,0.3" /></g><g
       id="g12"><path
         id="path6"
         d="M 93,85 H 75.651 c 0.222,-0.626 0.35,-1.297 0.352,-2 v -1 c -0.001,-0.342 -0.04,-0.674 -0.096,-1 h 1.096 c 1.547,-0.009 3.048,-0.484 4.421,-1.2 1.367,-0.729 2.607,-1.699 3.488,-2.972 L 93.394,64.43 c 0.947,-1.404 1.335,-3.057 1.343,-4.692 -0.005,-1.447 -0.313,-2.907 -1.078,-4.195 L 79.775,32.4 C 78.962,31.062 77.76,30.035 76.417,29.266 75.067,28.51 73.568,28.008 72.002,27.999 H 62.651 L 50.8,19.533 c -0.095,-0.056 -0.365,-0.352 -0.535,-0.696 -0.183,-0.34 -0.267,-0.731 -0.258,-0.841 L 50.003,15 H 50.004 58 c 1.104,0 2,-0.896 2,-2 0,-1.104 -0.896,-2 -2,-2 h -8 c -2.213,0.006 -3.992,1.79 -3.997,4 v 0.003 l 0.005,3 c 0.01,0.99 0.294,1.859 0.702,2.667 0.421,0.802 0.965,1.537 1.767,2.12 L 55.771,28 H 12.989 C 9.676,28.007 6.997,30.688 6.99,34 l 0.009,41 c 0.008,3.313 2.688,5.992 6.001,6 h 1.093 c -0.056,0.326 -0.095,0.658 -0.096,1 v 1 c 10e-4,0.703 0.129,1.374 0.352,2 H 7 c -1.104,0 -2,0.896 -2,2 0,1.104 0.896,2 2,2 h 86 c 1.104,0 2,-0.896 2,-2 0,-1.104 -0.896,-2 -2,-2 z m -34.646,0 h -4.707 c 0.222,-0.626 0.35,-1.297 0.352,-2 v -1 c -0.001,-0.342 -0.04,-0.674 -0.096,-1 h 4.195 c -0.056,0.326 -0.095,0.658 -0.096,1 v 1 c 0.002,0.703 0.13,1.374 0.352,2 z m -22.002,0 h -4.708 c 0.223,-0.626 0.351,-1.297 0.353,-2 v -1 c -0.001,-0.342 -0.04,-0.674 -0.096,-1 h 4.195 C 36.04,81.326 36.001,81.658 36,82 v 1 c 10e-4,0.703 0.129,1.374 0.352,2 z M 79.213,39.238 89.12,55.75 H 71 c -0.205,0 -0.387,-0.082 -0.529,-0.222 C 70.331,55.386 70.25,55.205 70.25,55 V 40.031 c 0,-0.205 0.081,-0.387 0.221,-0.528 0.142,-0.141 0.324,-0.222 0.529,-0.222 h 8 c 0.076,0 0.142,-0.03 0.213,-0.043 z M 11.589,76.41 C 11.22,76.039 11,75.548 10.999,75 L 10.99,34 c 0,-0.55 0.22,-1.04 0.589,-1.411 C 11.95,32.221 12.44,32 12.989,32 h 59.014 c 0.634,-0.01 1.598,0.261 2.444,0.748 0.853,0.475 1.58,1.162 1.898,1.711 l 1.394,2.322 H 71 c -1.796,0.005 -3.245,1.454 -3.25,3.25 V 55 c 0.005,1.795 1.454,3.245 3.25,3.25 h 19 c 0.17,0 0.331,-0.035 0.479,-0.097 0.158,0.452 0.263,1.007 0.26,1.584 0.008,0.953 -0.274,1.911 -0.646,2.435 L 87.645,65.75 H 19 c -0.69,0 -1.25,0.56 -1.25,1.25 0,0.69 0.56,1.25 1.25,1.25 h 66.935 l -4.323,6.319 v 0 c -0.361,0.544 -1.151,1.225 -2.053,1.692 -0.896,0.479 -1.903,0.747 -2.556,0.738 H 13 c -0.549,0 -1.04,-0.22 -1.411,-0.589 z M 19.997,85 C 19.448,84.999 18.957,84.779 18.586,84.411 18.217,84.039 17.998,83.549 17.997,83 v -1 c 0,-0.367 0.105,-0.703 0.281,-1 h 9.438 c 0.175,0.297 0.28,0.633 0.281,1 v 1 c -0.001,0.549 -0.221,1.039 -0.589,1.411 -0.372,0.368 -0.862,0.588 -1.411,0.589 z M 42,85 C 41.451,84.999 40.96,84.779 40.589,84.411 40.22,84.039 40,83.549 40,83 v -1 c 0,-0.367 0.105,-0.703 0.281,-1 h 9.438 c 0.175,0.297 0.28,0.633 0.281,1 v 1 c -10e-4,0.549 -0.221,1.039 -0.589,1.411 C 49.039,84.779 48.549,84.999 48,85 Z m 22.003,0 C 63.454,84.999 62.963,84.779 62.592,84.411 62.223,84.039 62.004,83.549 62.003,83 v -1 c 0,-0.367 0.106,-0.703 0.281,-1 h 9.438 c 0.175,0.297 0.28,0.633 0.281,1 v 1 c -0.001,0.549 -0.221,1.039 -0.589,1.411 -0.372,0.368 -0.862,0.588 -1.411,0.589 z" /><path
         id="path8"
         d="M 46,55.25 H 58 C 59.796,55.245 61.245,53.795 61.25,52 V 40 C 61.245,38.204 59.796,36.755 58,36.75 H 46 c -1.796,0.005 -3.245,1.454 -3.25,3.25 v 12 c 0.005,1.795 1.454,3.245 3.25,3.25 z M 45.25,40 c 0,-0.205 0.081,-0.387 0.221,-0.528 C 45.613,39.331 45.795,39.25 46,39.25 h 12 c 0.205,0 0.387,0.081 0.528,0.222 0.14,0.142 0.221,0.323 0.222,0.528 v 12 c 0,0.205 -0.082,0.387 -0.222,0.528 C 58.386,52.668 58.205,52.75 58,52.75 H 46 c -0.205,0 -0.387,-0.082 -0.529,-0.222 C 45.331,52.386 45.25,52.205 45.25,52 Z" /><path
         id="path10"
         d="M 21,55.25 H 33 C 34.796,55.245 36.245,53.795 36.25,52 V 40 C 36.245,38.204 34.796,36.755 33,36.75 H 21 c -1.796,0.005 -3.245,1.454 -3.25,3.25 v 12 c 0.005,1.795 1.454,3.245 3.25,3.25 z M 20.25,40 c 0,-0.205 0.081,-0.387 0.221,-0.528 C 20.613,39.331 20.795,39.25 21,39.25 h 12 c 0.205,0 0.387,0.081 0.528,0.222 0.14,0.142 0.221,0.323 0.222,0.528 v 12 c 0,0.205 -0.082,0.387 -0.222,0.528 C 33.386,52.668 33.205,52.75 33,52.75 H 21 c -0.205,0 -0.387,-0.082 -0.529,-0.222 C 20.331,52.386 20.25,52.205 20.25,52 Z" /></g></g></svg>