<?xml version="1.0" encoding="UTF-8" standalone="no"?>
<svg xmlns="http://www.w3.org/2000/svg" height="200" width="200" version="1.0">
 <path d="m30.201 0.011719c-16.731 0-30.201 13.47-30.201 30.201v139.58c0 16.73 13.47 30.2 30.201 30.2h139.6c16.73 0 30.2-13.47 30.2-30.2v-139.58c0-16.728-13.47-30.198-30.2-30.198l-139.6-0.000281zm18.891 33.134c10.334 0 16.694 6.786 16.89 15.704 0 8.721-6.555 15.701-17.089 15.701h-0.002-0.196c-10.137 0-16.693-6.98-16.693-15.701 0-8.918 6.757-15.704 17.09-15.704zm89.048 41.686c19.88 0 34.78 12.99 34.78 40.908v52.11h-30.2v-48.62c0-12.22-4.38-20.554-15.31-20.554-8.34 0-13.31 5.624-15.5 11.044-0.79 1.95-0.99 4.66-0.99 7.38v50.75h-30.207s0.396-82.357 0-90.885h30.207v12.883c4.01-6.194 11.18-15.016 27.22-15.016zm-104.36 2.135h30.209v90.883h-30.209v-90.883z" fill="#869AB8"/>
</svg>
